<svg xmlns="http://www.w3.org/2000/svg" width="750" height="612" fill="none"><path fill="#EBEBEB" d="M750 507.926H0v.375h750v-.375zm-75.148 24.143h-49.68v.375h49.68v-.375zm-178.02 4.081h-13.035v.375h13.035v-.375zm126.836-18.006h-28.785v.375h28.785v-.375zm-480.192 2.522H78.691v.375h64.785v-.375zm22.859 0h-9.495v.375h9.495v-.375zm171.388 6.331h-140.52v.375h140.52v-.375zm17.778-85.991H65.866a8.564 8.564 0 0 1-8.55-8.567V25.169a8.569 8.569 0 0 1 8.55-8.493h289.635a8.564 8.564 0 0 1 8.565 8.568v407.195a8.562 8.562 0 0 1-8.565 8.567zM65.866 16.976a8.188 8.188 0 0 0-8.175 8.193v407.27a8.193 8.193 0 0 0 8.175 8.192h289.635a8.202 8.202 0 0 0 8.19-8.192V25.169a8.209 8.209 0 0 0-8.19-8.193H65.866zm614.099 424.03h-289.65a8.579 8.579 0 0 1-8.565-8.567V25.169a8.581 8.581 0 0 1 8.565-8.493h289.65a8.566 8.566 0 0 1 8.535 8.493v407.27a8.567 8.567 0 0 1-8.535 8.567zm-289.65-424.03a8.203 8.203 0 0 0-8.19 8.193v407.27a8.208 8.208 0 0 0 8.19 8.192h289.65a8.202 8.202 0 0 0 8.19-8.192V25.169a8.209 8.209 0 0 0-8.19-8.193h-289.65z"/><path fill="#F0F0F0" d="M270.854 124.935a12.153 12.153 0 0 0-15.675-11.659 25.741 25.741 0 0 0-30.18-29.079 22.503 22.503 0 0 0-25.205-10.131 22.502 22.502 0 0 0-16.585 21.52h-.375a20.773 20.773 0 0 0-20.775 20.781 20.792 20.792 0 0 0 6.084 14.695 20.793 20.793 0 0 0 6.74 4.504 20.76 20.76 0 0 0 7.951 1.582h76.26a12.179 12.179 0 0 0 11.76-12.213zm307.368 124.567a12.186 12.186 0 0 0-10.097-12.02 12.164 12.164 0 0 0-5.623.347 25.53 25.53 0 0 0 .27-3.737 25.786 25.786 0 0 0-7.543-18.237 25.768 25.768 0 0 0-18.227-7.555c-1.595 0-3.187.145-4.755.435a22.499 22.499 0 0 0-25.174-10.054 22.511 22.511 0 0 0-16.571 21.457h-.375a20.775 20.775 0 0 0-20.217 20.774 20.775 20.775 0 0 0 20.217 20.774h76.275a12.166 12.166 0 0 0 11.82-12.184zm-381.809 94.664a12.198 12.198 0 0 0-4.902-9.767 12.189 12.189 0 0 0-10.758-1.906 27.8 27.8 0 0 0 .27-3.736 25.799 25.799 0 0 0-7.553-18.239 25.78 25.78 0 0 0-18.232-7.554 26.06 26.06 0 0 0-4.755.435 22.498 22.498 0 0 0-41.79 11.403h-.375a20.783 20.783 0 0 0-15.05 5.884 20.772 20.772 0 0 0-6.284 14.89 20.792 20.792 0 0 0 6.284 14.891 20.756 20.756 0 0 0 6.93 4.465 20.746 20.746 0 0 0 8.12 1.418h76.26a12.171 12.171 0 0 0 11.835-12.184zm459.944 9.873a12.189 12.189 0 0 0-4.907-9.775 12.176 12.176 0 0 0-10.768-1.898 25.54 25.54 0 0 0 .27-3.737 25.75 25.75 0 0 0-19.248-24.945 25.722 25.722 0 0 0-11.202-.397 22.502 22.502 0 0 0-25.218-10.157 22.505 22.505 0 0 0-16.587 21.545h-.375c-5.51 0-10.794 2.19-14.69 6.087a20.785 20.785 0 0 0 0 29.389 20.772 20.772 0 0 0 14.69 6.087h76.29a12.171 12.171 0 0 0 11.745-12.199zM405 280.247a8.2 8.2 0 0 0-3.288-6.553 8.194 8.194 0 0 0-7.212-1.31 17.404 17.404 0 0 0-17.19-19.896 17.303 17.303 0 0 0-3.195.3 15.188 15.188 0 0 0-24.983-1.408 15.207 15.207 0 0 0-3.187 9.091h-.255a13.996 13.996 0 0 0-13.995 13.999 13.996 13.996 0 0 0 13.995 13.999h51.405a8.19 8.19 0 0 0 7.905-8.222zm230.881-155.433a8.188 8.188 0 0 0-3.305-6.598 8.178 8.178 0 0 0-7.27-1.249 17.32 17.32 0 0 0-9.945-18.356 17.307 17.307 0 0 0-7.245-1.555c-1.072 0-2.142.1-3.195.3a15.184 15.184 0 0 0-16.971-6.77 15.18 15.18 0 0 0-11.184 14.452h-.255a13.999 13.999 0 0 0-9.896 23.899 13.993 13.993 0 0 0 9.896 4.1h51.39a8.217 8.217 0 0 0 5.657-2.492 8.22 8.22 0 0 0 2.323-5.731z"/><path fill="#F5F5F5" d="M88.473 486.92v-70.537h6.015v-33.625h8.82V265.887h12.75v-15.08l27.21-12.694v-15.214h3.765v42.988h5.28v116.871h5.28v-61.459h14.31v-31.66h4.005v93.119h10.875v-35.441h7.155v-9.048h16.59V307.36h9.075v-21.862h11.175v-31.87h3.975v31.87h11.16v21.862h9.09v30.909h16.59v9.048h7.155v35.441h8.49v-44.489h16.59V242.51h5.28v-10.563h35.43v10.563h7.53v69.366h30.15v6.797h11.31v5.267h-11.31v27.158h31.665v-90.493h6.78v-19.221h14.7v-68.24h4.155v68.24h10.545v19.221h61.875v-6.332h3.765v42.989h5.28v.75h3.165v42.973h5.28v11.689h11.145v-31.66h4.005v75.398h4.455v-31.66h3.99v49.38h2.43v-35.441h7.17v-9.047h16.575v-30.91h9.09v-21.876h11.16v-31.855h3.99v31.855h11.16v21.876h9.075v30.91h16.59v9.047h7.155v34.691h1.29v.75h3.54v72.788H88.473z"/><path fill="#FAFAFA" d="M477.42 264.837h-4.275v4.277h4.275v-4.277zm0 7.158h-4.275v4.276h4.275v-4.276zm0 28.658h-4.275v4.276h4.275v-4.276zm0 7.157h-4.275v4.276h4.275v-4.276zm0 7.173h-4.275v4.276h4.275v-4.276zm0 21.486h-4.275v4.276h4.275v-4.276zm0 7.156h-4.275v4.277h4.275v-4.277zm-6.793-50.129h-4.275v4.276h4.275v-4.276zm0 7.157h-4.275v4.276h4.275v-4.276zm0 7.157h-4.275v4.276h4.275v-4.276zm0 7.173h-4.275v4.276h4.275v-4.276zm0 7.157h-4.275v4.276h4.275v-4.276zm0 14.329h-4.275v4.276h4.275v-4.276zm0 7.156h-4.275v4.277h4.275v-4.277zm-6.782-78.788h-4.275v4.277h4.275v-4.277zm0 7.158h-4.275v4.276h4.275v-4.276zm0 7.172h-4.275v4.276h4.275v-4.276zm0 7.157h-4.275v4.276h4.275v-4.276zm0 7.172h-4.275v4.276h4.275v-4.276zm0 7.157h-4.275v4.276h4.275v-4.276zm0 7.157h-4.275v4.276h4.275v-4.276zm0 7.173h-4.275v4.276h4.275v-4.276zm0 7.157h-4.275v4.276h4.275v-4.276zm0 7.172h-4.275v4.276h4.275v-4.276zm0 14.314h-4.275v4.276h4.275v-4.276zm-6.781-78.789h-4.275v4.277h4.275v-4.277zm0 7.158h-4.275v4.276h4.275v-4.276zm0 7.172h-4.275v4.276h4.275v-4.276zm0 7.157h-4.275v4.276h4.275v-4.276zm0 7.172h-4.275v4.276h4.275v-4.276zm0 7.157h-4.275v4.276h4.275v-4.276zm0 7.157h-4.275v4.276h4.275v-4.276zm0 64.475h-4.275v4.276h4.275v-4.276zm-6.777-107.448h-4.275v4.277h4.275v-4.277zm0 7.158h-4.275v4.276h4.275v-4.276zm0 7.172h-4.275v4.276h4.275v-4.276zm0 7.157h-4.275v4.276h4.275v-4.276zm0 7.172h-4.275v4.276h4.275v-4.276zm0 7.157h-4.275v4.276h4.275v-4.276zm0 7.157h-4.275v4.276h4.275v-4.276zm0 7.173h-4.275v4.276h4.275v-4.276zm0 42.973h-4.275v4.276h4.275v-4.276zm0 7.172h-4.275v4.276h4.275v-4.276zm0 7.157h-4.275v4.276h4.275v-4.276zm0 7.157h-4.275v4.276h4.275v-4.276zm0 28.659h-4.275v4.276h4.275v-4.276zm-6.797-143.264h-4.275v4.277h4.275v-4.277zm0 7.158h-4.275v4.276h4.275v-4.276zm0 7.172h-4.275v4.276h4.275v-4.276zm0 7.157h-4.275v4.276h4.275v-4.276zm0 7.172h-4.275v4.276h4.275v-4.276zm0 7.157h-4.275v4.276h4.275v-4.276zm0 7.157h-4.275v4.276h4.275v-4.276zm0 7.173h-4.275v4.276h4.275v-4.276zm0 7.157h-4.275v4.276h4.275v-4.276zm0 7.172h-4.275v4.276h4.275v-4.276zm0 21.487h-4.275v4.276h4.275v-4.276zm0 7.157h-4.275v4.276h4.275v-4.276zm0 7.172h-4.275v4.276h4.275v-4.276zm0 7.157h-4.275v4.276h4.275v-4.276zm0 7.157h-4.275v4.276h4.275v-4.276zm0 28.659h-4.275v4.276h4.275v-4.276zm-6.781-143.264h-4.275v4.277h4.275v-4.277zm0 7.158h-4.275v4.276h4.275v-4.276zm0 7.172h-4.275v4.276h4.275v-4.276zm0 7.157h-4.275v4.276h4.275v-4.276zm0 7.172h-4.275v4.276h4.275v-4.276zm0 7.157h-4.275v4.276h4.275v-4.276zm0 7.157h-4.275v4.276h4.275v-4.276zm0 7.173h-4.275v4.276h4.275v-4.276zm0 7.157h-4.275v4.276h4.275v-4.276zm0 7.172h-4.275v4.276h4.275v-4.276zm0 7.157h-4.275v4.276h4.275v-4.276zm0 7.157h-4.275v4.276h4.275v-4.276zm.004 7.173h-4.275v4.276h4.275v-4.276zm-.004 7.157h-4.275v4.276h4.275v-4.276zm0 7.172h-4.275v4.276h4.275v-4.276zm0 7.157h-4.275v4.276h4.275v-4.276zm0 7.157h-4.275v4.276h4.275v-4.276zm0 7.172h-4.275v4.277h4.275v-4.277zm-6.782-121.777h-4.275v4.277h4.275v-4.277zm0 7.158h-4.275v4.276h4.275v-4.276zm0 7.172h-4.275v4.276h4.275v-4.276zm0 7.157h-4.275v4.276h4.275v-4.276zm0 7.172h-4.275v4.276h4.275v-4.276zm0 7.157h-4.275v4.276h4.275v-4.276zm0 7.157h-4.275v4.276h4.275v-4.276zm0 7.173h-4.275v4.276h4.275v-4.276zm0 7.157h-4.275v4.276h4.275v-4.276zm0 7.172h-4.275v4.276h4.275v-4.276zm0 21.487h-4.275v4.276h4.275v-4.276zm0 7.157h-4.275v4.276h4.275v-4.276zm0 7.172h-4.275v4.276h4.275v-4.276zm0 7.157h-4.275v4.276h4.275v-4.276zm-6.793-107.448h-4.275v4.277h4.275v-4.277zm0 7.158h-4.275v4.276h4.275v-4.276zm0 7.172h-4.275v4.276h4.275v-4.276zm0 7.157h-4.275v4.276h4.275v-4.276zm0 7.172h-4.275v4.276h4.275v-4.276zm0 7.157h-4.275v4.276h4.275v-4.276zm0 7.157h-4.275v4.276h4.275v-4.276zm0 7.173h-4.275v4.276h4.275v-4.276zm0 7.157h-4.275v4.276h4.275v-4.276zm0 7.172h-4.275v4.276h4.275v-4.276zm0 21.487h-4.275v4.276h4.275v-4.276zm0 7.157h-4.275v4.276h4.275v-4.276zm0 7.172h-4.275v4.276h4.275v-4.276zm-76.379-118.897h-4.275v4.277h4.275v-4.277zm0 7.172h-4.275v4.277h4.275v-4.277zm0 7.158h-4.275v4.276h4.275v-4.276zm0 7.157h-4.275v4.276h4.275v-4.276zm0 7.171h-4.275v4.277h4.275v-4.277zm0 7.158h-4.275v4.277h4.275v-4.277zm0 7.173h-4.275v4.276h4.275v-4.276zm0 7.157h-4.275v4.276h4.275v-4.276zm0 21.486h-4.275v4.277h4.275v-4.277zm0 7.172h-4.275v4.276h4.275v-4.276zm-6.781-78.804h-4.275v4.277h4.275v-4.277zm0 7.172h-4.275v4.277h4.275v-4.277zm0 7.158h-4.275v4.276h4.275v-4.276zm0 7.157h-4.275v4.277h4.275v-4.277zm0 7.172h-4.275v4.276h4.275v-4.276zm0 7.157h-4.275v4.277h4.275v-4.277zm0 7.173h-4.275v4.276h4.275v-4.276zm0 7.157h-4.275v4.276h4.275v-4.276zm0 28.658h-4.275v4.276h4.275v-4.276zm-6.793-78.804h-4.275v4.277h4.275v-4.277zm0 7.172h-4.275v4.277h4.275v-4.277zm0 7.158h-4.275v4.276h4.275v-4.276zm0 7.157h-4.275v4.277h4.275v-4.277zm0 7.172h-4.275v4.276h4.275v-4.276zm0 7.157h-4.275v4.277h4.275v-4.277zm0 7.173h-4.275v4.276h4.275v-4.276zm0 7.157h-4.275v4.276h4.275v-4.276zm-6.781-50.146h-4.275v4.277h4.275v-4.277zm0 7.172h-4.275v4.277h4.275v-4.277zm0 7.158h-4.275v4.276h4.275v-4.276zm0 7.157h-4.275v4.277h4.275v-4.277zm0 7.172h-4.275v4.276h4.275v-4.276zm0 7.157h-4.275v4.277h4.275v-4.277zm0 14.33h-4.275v4.276h4.275v-4.276zm0 7.171h-4.275v4.277h4.275v-4.277zm0 21.487h-4.275v4.276h4.275v-4.276zm0 7.157h-4.275v4.277h4.275v-4.277zm0 7.173h-4.275v4.276h4.275v-4.276zm0 7.157h-4.275v4.276h4.275v-4.276zm0 7.157h-4.275v4.277h4.275v-4.277zm0 7.172h-4.275v4.276h4.275v-4.276zm0 7.158h-4.275v4.276h4.275v-4.276zm-6.781-121.778h-4.275v4.277h4.275v-4.277zm0 7.172h-4.275v4.277h4.275v-4.277zm0 7.158h-4.275v4.276h4.275v-4.276zm0 7.157h-4.275v4.277h4.275v-4.277zm0 7.172h-4.275v4.276h4.275v-4.276zm0 7.157h-4.275v4.277h4.275v-4.277zm0 21.501h-4.275v4.277h4.275v-4.277zm0 7.158h-4.275v4.277h4.275v-4.277zm0 7.157h-4.275v4.277h4.275v-4.277zm0 7.172h-4.275v4.276h4.275v-4.276zm0 7.157h-4.275v4.277h4.275v-4.277zm0 7.173h-4.275v4.276h4.275v-4.276zm0 7.157h-4.275v4.276h4.275v-4.276zm0 7.157h-4.275v4.277h4.275v-4.277zm0 7.172h-4.275v4.276h4.275v-4.276zm0 7.158h-4.275v4.276h4.275v-4.276zm0 7.173h-4.275v4.276h4.275v-4.276zm0 14.328h-4.275v4.276h4.275v-4.276zm-6.793-143.279h-4.275v4.277h4.275v-4.277zm0 7.172h-4.275v4.277h4.275v-4.277zm0 7.158h-4.275v4.276h4.275v-4.276zm0 7.157h-4.275v4.277h4.275v-4.277zm0 7.172h-4.275v4.276h4.275v-4.276zm0 7.157h-4.275v4.277h4.275v-4.277zm0 21.501h-4.275v4.277h4.275v-4.277zm0 7.158h-4.275v4.277h4.275v-4.277zm0 7.157h-4.275v4.277h4.275v-4.277zm0 7.172h-4.275v4.276h4.275v-4.276zm0 21.487h-4.275v4.276h4.275v-4.276zm0 7.157h-4.275v4.277h4.275v-4.277zm0 7.172h-4.275v4.276h4.275v-4.276zm0 7.158h-4.275v4.276h4.275v-4.276zm0 7.173h-4.275v4.276h4.275v-4.276zm0 14.328h-4.275v4.276h4.275v-4.276zm0 7.158h-4.275v4.276h4.275v-4.276zm-61.563-83.832h-4.275v4.277h4.275v-4.277zm0 7.173h-4.275v4.276h4.275v-4.276zm0 7.158h-4.275v4.276h4.275v-4.276zm0 7.171h-4.275v4.276h4.275v-4.276zm0 7.158h-4.275v4.276h4.275v-4.276zm0 7.157h-4.275v4.276h4.275v-4.276zm0 7.172h-4.275v4.276h4.275v-4.276zm0 21.486h-4.275v4.277h4.275v-4.277zm0 7.173h-4.275v4.276h4.275v-4.276zm0 7.157h-4.275v4.276h4.275v-4.276zm-6.777-78.805h-4.275v4.277h4.275v-4.277zm0 7.173h-4.275v4.276h4.275v-4.276zm0 7.158h-4.275v4.276h4.275v-4.276zm0 7.171h-4.275v4.276h4.275v-4.276zm0 7.158h-4.275v4.276h4.275v-4.276zm0 7.157h-4.275v4.276h4.275v-4.276zm0 7.172h-4.275v4.276h4.275v-4.276zm-6.781-42.989h-4.275v4.277h4.275v-4.277zm0 7.173h-4.275v4.276h4.275v-4.276zm0 7.158h-4.275v4.276h4.275v-4.276zm0 7.171h-4.275v4.276h4.275v-4.276zm0 7.158h-4.275v4.276h4.275v-4.276zm0 7.157h-4.275v4.276h4.275v-4.276zm0 7.172h-4.275v4.276h4.275v-4.276zm-6.797-42.989h-4.275v4.277h4.275v-4.277zm0 7.173h-4.275v4.276h4.275v-4.276zm0 7.158h-4.275v4.276h4.275v-4.276zm0 7.171h-4.275v4.276h4.275v-4.276zm0 7.158h-4.275v4.276h4.275v-4.276zm0 7.157h-4.275v4.276h4.275v-4.276zm0 7.172h-4.275v4.276h4.275v-4.276zm0 7.156h-4.275v4.277h4.275v-4.277zm0 7.173h-4.275v4.277h4.275v-4.277zm0 7.157h-4.275v4.277h4.275v-4.277zm0 7.173h-4.275v4.276h4.275v-4.276zm-6.778-71.648h-4.275v4.277h4.275v-4.277zm0 7.173h-4.275v4.276h4.275v-4.276zm0 7.158h-4.275v4.276h4.275v-4.276zm0 7.171h-4.275v4.276h4.275v-4.276zm0 7.158h-4.275v4.276h4.275v-4.276zm0 7.157h-4.275v4.276h4.275v-4.276zm0 7.172h-4.275v4.276h4.275v-4.276zm0 7.156h-4.275v4.277h4.275v-4.277zm0 7.174h-4.275v4.276h4.275v-4.276zm0 7.156h-4.275v4.277h4.275v-4.277zm0 7.173h-4.275v4.276h4.275v-4.276zm0 7.157h-4.275v4.276h4.275v-4.276zm0 21.487h-4.275v4.276h4.275v-4.276zm0 7.172h-4.275v4.276h4.275V420.3zm-6.781-107.464h-4.275v4.277h4.275v-4.277zm0 7.173h-4.275v4.276h4.275v-4.276zm0 7.158h-4.275v4.276h4.275v-4.276zm0 21.486h-4.275v4.276h4.275v-4.276zm0 7.172h-4.275v4.276h4.275v-4.276zm0 7.156h-4.275v4.277h4.275v-4.277zm0 7.173h-4.275v4.277h4.275v-4.277zm0 7.158h-4.275v4.276h4.275v-4.276zm0 7.172h-4.275v4.276h4.275v-4.276zm0 7.157h-4.275v4.276h4.275v-4.276zm0 21.486h-4.275v4.277h4.275v-4.277zm0 7.172h-4.275v4.277h4.275v-4.277zm0 7.158h-4.275v4.276h4.275v-4.276zm-71.113-157.593h-4.275v4.276h4.275v-4.276zm0 7.156h-4.275v4.277h4.275v-4.277zm0 7.173h-4.275v4.277h4.275v-4.277zm0 7.157h-4.275v4.276h4.275v-4.276zm0 7.172h-4.275v4.277h4.275v-4.277zm0 7.157h-4.275v4.277h4.275v-4.277zm0 7.157h-4.275v4.277h4.275v-4.277zm0 7.173h-4.275v4.276h4.275v-4.276zm0 7.158h-4.275v4.276h4.275v-4.276zm0 7.171h-4.275v4.276h4.275v-4.276zm0 7.158h-4.275v4.276h4.275v-4.276zm0 7.157h-4.275v4.276h4.275v-4.276zm0 7.172h-4.275v4.276h4.275v-4.276zm0 7.156h-4.275v4.277h4.275v-4.277zm0 7.173h-4.275v4.277h4.275v-4.277zm0 7.157h-4.275v4.277h4.275v-4.277zm0 7.173h-4.275v4.276h4.275v-4.276zm0 7.157h-4.275v4.276h4.275v-4.276zm0 7.157h-4.275v4.276h4.275v-4.276zm0 7.172h-4.275v4.276h4.275v-4.276zm0 7.158h-4.275v4.276h4.275v-4.276zm0 7.172h-4.275v4.276h4.275V420.3zm0 7.157h-4.275v4.276h4.275v-4.276zm-6.781-157.593h-4.275v4.276h4.275v-4.276zm0 7.156h-4.275v4.276h4.275v-4.276zm0 7.173h-4.275v4.277h4.275v-4.277zm0 7.157h-4.275v4.276h4.275v-4.276zm0 7.172h-4.275v4.277h4.275v-4.277zm0 7.157h-4.275v4.277h4.275v-4.277zm0 7.157h-4.275v4.277h4.275v-4.277zm0 7.173h-4.275v4.276h4.275v-4.276zm0 7.158h-4.275v4.276h4.275v-4.276zm0 7.171h-4.275v4.276h4.275v-4.276zm0 7.158h-4.275v4.276h4.275v-4.276zm0 7.157h-4.275v4.276h4.275v-4.276zm0 7.172h-4.275v4.276h4.275v-4.276zm0 7.156h-4.275v4.277h4.275v-4.277zm0 7.173h-4.275v4.277h4.275v-4.277zm0 7.158h-4.275v4.276h4.275v-4.276zm0 7.172h-4.275v4.276h4.275v-4.276zm0 7.157h-4.275v4.276h4.275v-4.276zm0 7.157h-4.275v4.276h4.275v-4.276zm-6.782-128.934h-4.275v4.276h4.275v-4.276zm0 7.156h-4.275v4.276h4.275v-4.276zm0 7.173h-4.275v4.277h4.275v-4.277zm0 7.157h-4.275v4.276h4.275v-4.276zm0 7.172h-4.275v4.277h4.275v-4.277zm0 7.157h-4.275v4.277h4.275v-4.277zm0 7.157h-4.275v4.277h4.275v-4.277zm0 7.173h-4.275v4.276h4.275v-4.276zm0 7.158h-4.275v4.276h4.275v-4.276zm0 7.171h-4.275v4.276h4.275v-4.276zm0 7.158h-4.275v4.276h4.275v-4.276zm0 7.157h-4.275v4.276h4.275v-4.276zm0 7.172h-4.275v4.276h4.275v-4.276zm0 7.156h-4.275v4.277h4.275v-4.277zm0 7.173h-4.275v4.277h4.275v-4.277zm0 7.158h-4.275v4.276h4.275v-4.276zm0 7.172h-4.275v4.276h4.275v-4.276zm0 7.157h-4.275v4.276h4.275v-4.276zm0 7.157h-4.275v4.276h4.275v-4.276zm-6.793-128.934h-4.275v4.276h4.275v-4.276zm0 7.156h-4.275v4.276h4.275v-4.276zm0 7.173h-4.275v4.277h4.275v-4.277zm0 7.157h-4.275v4.276h4.275v-4.276zm0 7.172h-4.275v4.277h4.275v-4.277zm0 7.157h-4.275v4.277h4.275v-4.277zm0 7.157h-4.275v4.277h4.275v-4.277zm0 7.173h-4.275v4.276h4.275v-4.276zm0 7.158h-4.275v4.276h4.275v-4.276zm0 7.171h-4.275v4.276h4.275v-4.276zm0 7.158h-4.275v4.276h4.275v-4.276zm0 7.157h-4.275v4.276h4.275v-4.276zm0 7.172h-4.275v4.276h4.275v-4.276zm0 7.156h-4.275v4.277h4.275v-4.277zm0 7.173h-4.275v4.277h4.275v-4.277zm-6.781-100.29h-4.275v4.276h4.275v-4.276zm0 7.156h-4.275v4.277h4.275v-4.277zm0 7.173h-4.275v4.277h4.275v-4.277zm0 7.157h-4.275v4.276h4.275v-4.276zm0 7.172h-4.275v4.277h4.275v-4.277zm0 7.157h-4.275v4.277h4.275v-4.277zm0 7.157h-4.275v4.277h4.275v-4.277zm0 7.173h-4.275v4.276h4.275v-4.276zm0 7.158h-4.275v4.276h4.275v-4.276zm0 7.171h-4.275v4.276h4.275v-4.276zm0 7.158h-4.275v4.276h4.275v-4.276zm0 7.157h-4.275v4.276h4.275v-4.276zm0 7.172h-4.275v4.276h4.275v-4.276zm-6.777-85.961h-4.275v4.276h4.275v-4.276zm0 7.156h-4.275v4.276h4.275v-4.276zm0 7.173h-4.275v4.277h4.275v-4.277zm0 7.157h-4.275v4.276h4.275v-4.276zm0 7.172h-4.275v4.277h4.275v-4.277zm0 7.157h-4.275v4.277h4.275v-4.277zm0 7.157h-4.275v4.277h4.275v-4.277zm0 7.173h-4.275v4.276h4.275v-4.276zm0 7.158h-4.275v4.276h4.275v-4.276zm0 7.171h-4.275v4.276h4.275v-4.276zm0 7.158h-4.275v4.276h4.275v-4.276zm0 7.157h-4.275v4.276h4.275v-4.276zm498.523-26.513h-4.275v4.276h4.275v-4.276zm0 7.172h-4.275v4.276h4.275v-4.276zm0 7.157h-4.275v4.276h4.275v-4.276zm0 7.156h-4.275v4.277h4.275v-4.277zm0 7.174h-4.275v4.276h4.275v-4.276zm0 7.157h-4.275v4.276h4.275v-4.276zm0 7.172h-4.275v4.276h4.275v-4.276zm0 7.157h-4.275v4.276h4.275v-4.276zm0 7.157h-4.275v4.276h4.275v-4.276zm0 7.172h-4.275v4.277h4.275v-4.277zm0 7.157h-4.275v4.277h4.275v-4.277zm0 7.173h-4.275v4.277h4.275v-4.277zm0 7.157h-4.275v4.276h4.275v-4.276zm0 7.172h-4.275v4.276h4.275v-4.276zm0 7.157h-4.275v4.276h4.275v-4.276zm0 7.157h-4.275v4.277h4.275v-4.277zm0 7.173h-4.275v4.276h4.275v-4.276zm0 7.157h-4.275v4.277h4.275v-4.277zm0 7.172h-4.275v4.277h4.275v-4.277zm0 7.158h-4.275v4.276h4.275v-4.276zm-6.797-136.107h-4.275v4.276h4.275v-4.276zm0 7.172h-4.275v4.276h4.275v-4.276zm0 7.157h-4.275v4.276h4.275v-4.276zm0 7.156h-4.275v4.277h4.275v-4.277zm0 7.174h-4.275v4.276h4.275v-4.276zm0 7.157h-4.275v4.276h4.275v-4.276zm0 7.172h-4.275v4.276h4.275v-4.276zm0 7.157h-4.275v4.276h4.275v-4.276zm0 7.157h-4.275v4.276h4.275v-4.276zm0 7.172h-4.275v4.277h4.275v-4.277zm0 7.157h-4.275v4.277h4.275v-4.277zm0 7.173h-4.275v4.277h4.275v-4.277zm0 7.157h-4.275v4.276h4.275v-4.276zm0 7.172h-4.275v4.276h4.275v-4.276zm0 7.157h-4.275v4.276h4.275v-4.276zm0 7.157h-4.275v4.277h4.275v-4.277zm0 7.173h-4.275v4.276h4.275v-4.276zm0 7.157h-4.275v4.277h4.275v-4.277zm-6.777-121.777h-4.275v4.276h4.275v-4.276zm0 7.172h-4.275v4.276h4.275v-4.276zm0 7.157h-4.275v4.276h4.275v-4.276zm0 7.156h-4.275v4.277h4.275v-4.277zm0 7.174h-4.275v4.276h4.275v-4.276zm0 7.157h-4.275v4.276h4.275v-4.276zm0 7.172h-4.275v4.276h4.275v-4.276zm0 7.157h-4.275v4.276h4.275v-4.276zm0 7.157h-4.275v4.276h4.275v-4.276zm0 7.172h-4.275v4.277h4.275v-4.277zm0 7.157h-4.275v4.277h4.275v-4.277zm0 7.173h-4.275v4.277h4.275v-4.277zm0 7.157h-4.275v4.276h4.275v-4.276zm0 7.172h-4.275v4.276h4.275v-4.276zm0 7.157h-4.275v4.276h4.275v-4.276zm0 7.157h-4.275v4.277h4.275v-4.277zm0 7.173h-4.275v4.276h4.275v-4.276zm0 7.157h-4.275v4.277h4.275v-4.277zm38.953-69.501h-4.275v4.276h4.275v-4.276zm0 7.172h-4.275v4.276h4.275v-4.276zm0 7.158h-4.275v4.276h4.275v-4.276zm0 7.171h-4.275v4.276h4.275v-4.276zm0 7.158h-4.275v4.276h4.275v-4.276zm0 7.171h-4.275v4.276h4.275v-4.276zm0 7.157h-4.275v4.277h4.275v-4.277zm0 7.158h-4.275v4.276h4.275v-4.276zm0 7.172h-4.275v4.277h4.275v-4.277zm0 7.158h-4.275v4.276h4.275v-4.276zm0 7.171h-4.275v4.277h4.275v-4.277zm0 7.157h-4.275v4.277h4.275v-4.277zm0 7.158h-4.275v4.277h4.275v-4.277zm-6.797-85.961h-4.275v4.276h4.275v-4.276zm0 7.172h-4.275v4.276h4.275v-4.276zm0 7.158h-4.275v4.276h4.275v-4.276zm0 7.171h-4.275v4.276h4.275v-4.276zm0 7.158h-4.275v4.276h4.275v-4.276zm0 7.171h-4.275v4.276h4.275v-4.276zm.004 7.157h-4.275v4.277h4.275v-4.277zm-.004 7.158h-4.275v4.276h4.275v-4.276zm0 7.172h-4.275v4.277h4.275v-4.277zm0 7.158h-4.275v4.276h4.275v-4.276zm0 7.171h-4.275v4.277h4.275v-4.277zm0 7.157h-4.275v4.277h4.275v-4.277zm0 7.158h-4.275v4.277h4.275v-4.277zm-6.777-85.961h-4.275v4.276h4.275v-4.276zm0 7.172h-4.275v4.276h4.275v-4.276zm0 7.158h-4.275v4.276h4.275v-4.276zm0 7.171h-4.275v4.276h4.275v-4.276zm0 7.158h-4.275v4.276h4.275v-4.276zm0 7.171h-4.275v4.276h4.275v-4.276zm0 7.157h-4.275v4.277h4.275v-4.277zm0 7.158h-4.275v4.276h4.275v-4.276zm0 7.172h-4.275v4.277h4.275v-4.277zm0 7.158h-4.275v4.276h4.275v-4.276zm0 7.171h-4.275v4.277h4.275v-4.277zm0 7.157h-4.275v4.277h4.275v-4.277zm0 7.158h-4.275v4.277h4.275v-4.277zm0 7.172h-4.275v4.277h4.275v-4.277zm-37.695-90.988h-4.275v4.276h4.275v-4.276zm0 7.158h-4.275v4.276h4.275v-4.276zm0 7.172h-4.275v4.276h4.275v-4.276zm0 7.157h-4.275v4.276h4.275v-4.276zm0 7.173h-4.275v4.276h4.275v-4.276zm0 7.156h-4.275v4.277h4.275v-4.277zm0 7.157h-4.275v4.276h4.275v-4.276zm0 7.173h-4.275v4.276h4.275v-4.276zm0 7.156h-4.275v4.277h4.275v-4.277zm0 7.173h-4.275v4.276h4.275v-4.276zm0 21.487h-4.275v4.276h4.275v-4.276zm-6.782-85.962h-4.275v4.276h4.275v-4.276zm0 7.158h-4.275v4.276h4.275v-4.276zm0 7.172h-4.275v4.276h4.275v-4.276zm0 7.157h-4.275v4.276h4.275v-4.276zm0 7.173h-4.275v4.276h4.275v-4.276zm0 7.156h-4.275v4.277h4.275v-4.277zm0 7.157h-4.275v4.276h4.275v-4.276zm0 7.173h-4.275v4.276h4.275v-4.276zm0 7.156h-4.275v4.277h4.275v-4.277zm0 21.487h-4.275v4.276h4.275v-4.276zm0 7.173h-4.275v4.276h4.275v-4.276zm-6.777-85.962h-4.275v4.276h4.275v-4.276zm0 7.158h-4.275v4.276h4.275v-4.276zm0 7.172h-4.275v4.276h4.275v-4.276zm0 7.157h-4.275v4.276h4.275v-4.276zm0 7.173h-4.275v4.276h4.275v-4.276zm0 7.156h-4.275v4.277h4.275v-4.277zm0 7.157h-4.275v4.276h4.275v-4.276zm0 7.173h-4.275v4.276h4.275v-4.276zm0 21.486h-4.275v4.276h4.275v-4.276zm0 7.157h-4.275v4.276h4.275v-4.276zm0 7.173h-4.275v4.276h4.275v-4.276zm-63.074-194.805h-4.275v4.277h4.275v-4.277zm0 7.172h-4.275v4.276h4.275v-4.276zm0 7.157h-4.275v4.277h4.275v-4.277zm0 7.173h-4.275v4.276h4.275v-4.276zm0 7.157h-4.275v4.276h4.275v-4.276zm0 7.171h-4.275v4.277h4.275v-4.277zm0 7.158h-4.275v4.277h4.275v-4.277zm0 7.157h-4.275v4.277h4.275v-4.277zm0 7.172h-4.275v4.276h4.275v-4.276zm0 7.157h-4.275v4.277h4.275v-4.277zm0 7.173h-4.275v4.276h4.275v-4.276zm0 7.157h-4.275v4.276h4.275v-4.276zm0 7.157h-4.275v4.277h4.275v-4.277zm0 7.172h-4.275v4.276h4.275v-4.276zm0 7.158h-4.275v4.276h4.275v-4.276zm0 7.173h-4.275v4.276h4.275v-4.276zm0 7.156h-4.275v4.277h4.275v-4.277zm0 14.33h-4.275v4.276h4.275v-4.276zm0 7.156h-4.275v4.277h4.275v-4.277zm0 7.172h-4.275v4.277h4.275v-4.277zm0 7.158h-4.275v4.276h4.275v-4.276zm0 7.172h-4.275v4.276h4.275v-4.276zm-6.781-157.608h-4.275v4.277h4.275v-4.277zm0 7.172h-4.275v4.276h4.275v-4.276zm0 7.157h-4.275v4.277h4.275v-4.277zm0 7.173h-4.275v4.276h4.275v-4.276zm0 7.157h-4.275v4.276h4.275v-4.276zm0 7.171h-4.275v4.277h4.275v-4.277zm0 7.159h-4.275v4.276h4.275v-4.276zm0 7.156h-4.275v4.277h4.275v-4.277zm0 7.172h-4.275v4.276h4.275v-4.276zm0 7.157h-4.275v4.277h4.275v-4.277zm0 7.173h-4.275v4.276h4.275v-4.276zm0 7.157h-4.275v4.276h4.275v-4.276zm0 7.158h-4.275v4.276h4.275v-4.276zm0 7.171h-4.275v4.276h4.275v-4.276zm0 7.158h-4.275v4.276h4.275v-4.276zm0 7.173h-4.275v4.276h4.275v-4.276zm0 42.972h-4.275v4.276h4.275v-4.276zm0 7.172h-4.275v4.276h4.275v-4.276zm-6.782-157.608h-4.275v4.277h4.275v-4.277zm0 7.172h-4.275v4.276h4.275v-4.276zm0 7.157h-4.275v4.277h4.275v-4.277zm0 7.173h-4.275v4.276h4.275v-4.276zm0 7.157h-4.275v4.276h4.275v-4.276zm0 7.171h-4.275v4.277h4.275v-4.277zm0 7.158h-4.275v4.277h4.275v-4.277zm0 7.157h-4.275v4.277h4.275v-4.277zm0 7.172h-4.275v4.276h4.275v-4.276zm0 7.157h-4.275v4.277h4.275v-4.277zm0 7.173h-4.275v4.276h4.275v-4.276zm0 7.157h-4.275v4.276h4.275v-4.276zm0 7.157h-4.275v4.277h4.275v-4.277zm0 7.172h-4.275v4.276h4.275v-4.276zm0 7.158h-4.275v4.276h4.275v-4.276zm0 7.173h-4.275v4.276h4.275v-4.276zm0 14.328h-4.275v4.276h4.275v-4.276zm0 7.158h-4.275v4.276h4.275v-4.276zm0 7.156h-4.275v4.277h4.275v-4.277zm0 7.172h-4.275v4.277h4.275v-4.277zm0 14.33h-4.275v4.276h4.275v-4.276zm38.192-67.37h-4.275v4.276h4.275v-4.276zm0 7.172h-4.275v4.276h4.275v-4.276zm0 7.157h-4.275v4.276h4.275v-4.276zm0 7.157h-4.275v4.276h4.275v-4.276zm0 7.172h-4.275v4.277h4.275v-4.277zm0 7.157h-4.275v4.277h4.275v-4.277zm0 7.173h-4.275v4.277h4.275v-4.277zm0 14.329h-4.275v4.276h4.275v-4.276zm0 7.157h-4.275v4.276h4.275v-4.276zm0 7.157h-4.275v4.277h4.275v-4.277zm0 7.173h-4.275v4.276h4.275v-4.276zm0 7.157h-4.275v4.277h4.275v-4.277zm0 7.172h-4.275v4.277h4.275v-4.277zm0 7.158h-4.275v4.276h4.275v-4.276zm0 7.171h-4.275v4.276h4.275v-4.276zm-6.797-107.462h-4.275v4.276h4.275v-4.276zm0 7.172h-4.275v4.276h4.275v-4.276zm0 7.157h-4.275v4.276h4.275v-4.276zm0 7.157h-4.275v4.276h4.275v-4.276zm0 7.172h-4.275v4.277h4.275v-4.277zm0 7.157h-4.275v4.277h4.275v-4.277zm0 21.502h-4.275v4.276h4.275v-4.276zm0 7.157h-4.275v4.276h4.275v-4.276zm0 7.157h-4.275v4.277h4.275v-4.277zm0 7.173h-4.275v4.276h4.275v-4.276zm0 7.157h-4.275v4.277h4.275v-4.277zm0 7.172h-4.275v4.276h4.275v-4.276zm0 7.158h-4.275v4.276h4.275v-4.276zm0 7.171h-4.275v4.276h4.275v-4.276zm-6.777-107.462h-4.275v4.276h4.275v-4.276zm0 7.172h-4.275v4.276h4.275v-4.276zm0 7.157h-4.275v4.276h4.275v-4.276zm0 7.157h-4.275v4.276h4.275v-4.276zm0 7.172h-4.275v4.277h4.275v-4.277zm0 7.157h-4.275v4.277h4.275v-4.277zm0 14.33h-4.275v4.276h4.275v-4.276zm0 7.172h-4.275v4.276h4.275v-4.276zm0 7.157h-4.275v4.276h4.275v-4.276zm0 7.157h-4.275v4.277h4.275v-4.277zm0 7.173h-4.275v4.276h4.275v-4.276zm0 7.157h-4.275v4.277h4.275v-4.277zm0 7.172h-4.275v4.277h4.275v-4.277zm0 7.158h-4.275v4.276h4.275v-4.276zm0 7.171h-4.275v4.276h4.275v-4.276zM376.408 317.863h-4.275v4.277h4.275v-4.277zm0 7.172h-4.275v4.276h4.275v-4.276zm0 7.157h-4.275v4.277h4.275v-4.277zm0 7.173h-4.275v4.276h4.275v-4.276zm0 7.157h-4.275v4.276h4.275v-4.276zm0 7.158h-4.275v4.276h4.275v-4.276zm0 7.171h-4.275v4.276h4.275v-4.276zm0 7.158h-4.275v4.276h4.275v-4.276zm0 7.173h-4.275v4.276h4.275v-4.276zm0 7.156h-4.275v4.277h4.275v-4.277zm0 7.172h-4.275v4.276h4.275v-4.276zm0 7.157h-4.275v4.277h4.275v-4.277zm0 7.158h-4.275v4.276h4.275v-4.276zm0 14.329h-4.275v4.276h4.275v-4.276zm0 7.172h-4.275v4.276h4.275v-4.276zm0 7.157h-4.275v4.277h4.275v-4.277zm0 7.158h-4.275v4.276h4.275v-4.276zm0 14.329h-4.275v4.277h4.275v-4.277zm0 7.172h-4.275v4.276h4.275v-4.276zm0 7.158h-4.275v4.276h4.275V468.3zm-6.793-150.437h-4.275v4.277h4.275v-4.277zm0 7.172h-4.275v4.276h4.275v-4.276zm0 7.157h-4.275v4.277h4.275v-4.277zm0 7.173h-4.275v4.276h4.275v-4.276zm0 7.157h-4.275v4.276h4.275v-4.276zm0 7.158h-4.275v4.276h4.275v-4.276zm0 7.171h-4.275v4.276h4.275v-4.276zm0 7.158h-4.275v4.276h4.275v-4.276zm0 7.173h-4.275v4.276h4.275v-4.276zm0 7.156h-4.275v4.277h4.275v-4.277zm0 7.172h-4.275v4.276h4.275v-4.276zm0 7.157h-4.275v4.277h4.275v-4.277zm0 7.158h-4.275v4.276h4.275v-4.276zm0 21.501h-4.275v4.276h4.275v-4.276zm0 7.157h-4.275v4.277h4.275v-4.277zm0 14.329h-4.275v4.276h4.275v-4.276zm0 7.158h-4.275v4.277h4.275v-4.277zm0 7.172h-4.275v4.276h4.275v-4.276zm0 7.158h-4.275v4.276h4.275V468.3zm-6.781-150.437h-4.275v4.277h4.275v-4.277zm0 7.172h-4.275v4.276h4.275v-4.276zm0 7.157h-4.275v4.277h4.275v-4.277zm0 7.173h-4.275v4.276h4.275v-4.276zm0 7.157h-4.275v4.276h4.275v-4.276zm0 7.157h-4.275v4.277h4.275v-4.277zm0 7.172h-4.275v4.276h4.275v-4.276zm0 7.158h-4.275v4.276h4.275v-4.276zm0 7.173h-4.275v4.276h4.275v-4.276zm0 7.156h-4.275v4.277h4.275v-4.277zm0 7.172h-4.275v4.276h4.275v-4.276zm0 7.158h-4.275v4.276h4.275v-4.276zm0 7.156h-4.275v4.277h4.275v-4.277zm0 7.172h-4.275v4.277h4.275v-4.277zm0 14.33h-4.275v4.276h4.275v-4.276zm0 14.315h-4.275v4.276h4.275v-4.276zm0 7.171h-4.275v4.277h4.275v-4.277zm0 7.158h-4.275v4.277h4.275v-4.277zm0 7.172h-4.275v4.276h4.275v-4.276zm0 7.158h-4.275v4.276h4.275V468.3zm41.207-109.579h-4.275v4.277h4.275v-4.277zm0 7.157h-4.275v4.276h4.275v-4.276zm0 7.157h-4.275v4.276h4.275v-4.276zm0 7.172h-4.275v4.276h4.275v-4.276zm0 7.157h-4.275v4.277h4.275v-4.277zm0 7.173h-4.275v4.276h4.275v-4.276zm0 21.486h-4.275v4.276h4.275v-4.276zm0 7.157h-4.275v4.276h4.275v-4.276zm0 7.174h-4.275v4.276h4.275v-4.276zm0 7.156h-4.275v4.277h4.275v-4.277zm0 7.173h-4.275v4.276h4.275v-4.276zm0 7.156h-4.275v4.277h4.275v-4.277zm0 7.157h-4.275v4.276h4.275v-4.276zm-6.782-100.275h-4.275v4.277h4.275v-4.277zm0 7.157h-4.275v4.276h4.275v-4.276zm0 7.157h-4.275v4.276h4.275v-4.276zm0 7.172h-4.275v4.276h4.275v-4.276zm0 7.157h-4.275v4.277h4.275v-4.277zm0 7.173h-4.275v4.276h4.275v-4.276zm0 21.486h-4.275v4.276h4.275v-4.276zm0 7.157h-4.275v4.276h4.275v-4.276zm0 7.174h-4.275v4.276h4.275v-4.276zm0 7.156h-4.275v4.277h4.275v-4.277zm0 7.173h-4.275v4.276h4.275v-4.276zm0 7.156h-4.275v4.277h4.275v-4.277zm0 14.329h-4.275v4.277h4.275v-4.277zM171.873 327.167h-4.275v4.276h4.275v-4.276zm-.004 7.171h-4.275v4.276h4.275v-4.276zm.004 7.158h-4.275v4.276h4.275v-4.276zm0 7.157h-4.275v4.276h4.275v-4.276zm0 7.172h-4.275v4.276h4.275v-4.276zm0 7.156h-4.275v4.277h4.275v-4.277zm0 7.173h-4.275v4.277h4.275v-4.277zm0 7.157h-4.275v4.277h4.275v-4.277zm0 7.173h-4.275v4.276h4.275v-4.276zm0 7.157h-4.275v4.276h4.275v-4.276zm0 7.157h-4.275v4.276h4.275v-4.276zm0 14.33h-4.275v4.276h4.275v-4.276zm0 7.172h-4.275v4.276h4.275V420.3zm0 7.157h-4.275v4.276h4.275v-4.276zm0 7.157h-4.275v4.277h4.275v-4.277zm0 7.172h-4.275v4.276h4.275v-4.276zm0 7.157h-4.275v4.276h4.275v-4.276zm0 7.173h-4.275v4.276h4.275v-4.276zm0 7.157h-4.275v4.276h4.275v-4.276zm-6.786-136.106h-4.275v4.276h4.275v-4.276zm0 7.171h-4.275v4.276h4.275v-4.276zm0 7.158h-4.275v4.276h4.275v-4.276zm0 7.157h-4.275v4.276h4.275v-4.276zm0 7.172h-4.275v4.276h4.275v-4.276zm0 7.156h-4.275v4.277h4.275v-4.277zm0 7.173h-4.275v4.277h4.275v-4.277zm0 7.158h-4.275v4.276h4.275v-4.276zm0 7.172h-4.275v4.276h4.275v-4.276zm0 7.157h-4.275v4.276h4.275v-4.276zm0 7.157h-4.275v4.276h4.275v-4.276zm0 7.172h-4.275v4.276h4.275v-4.276zm0 7.157h-4.275v4.277h4.275v-4.277zm0 7.172h-4.275v4.277h4.275v-4.277zm0 7.158h-4.275v4.276h4.275v-4.276zm0 7.157h-4.275v4.277h4.275v-4.277zm0 7.172h-4.275v4.276h4.275v-4.276zm0 7.157h-4.275v4.276h4.275v-4.276zm0 7.173h-4.275v4.276h4.275v-4.276zm0 7.156h-4.275v4.277h4.275v-4.277zm40.204-108.197h-4.275v4.276h4.275v-4.276zm0 7.156h-4.275v4.277h4.275v-4.277zm0 7.158h-4.275v4.276h4.275v-4.276zm0 7.172h-4.275v4.276h4.275v-4.276zm0 7.158h-4.275v4.276h4.275v-4.276zm0 7.172h-4.275v4.276h4.275v-4.276zm0 7.157h-4.275v4.276h4.275v-4.276zm0 7.173h-4.275v4.276h4.275v-4.276zm0 7.156h-4.275v4.277h4.275v-4.277zm0 7.157h-4.275v4.276h4.275v-4.276zm-6.782-64.459h-4.275v4.276h4.275v-4.276zm0 7.156h-4.275v4.277h4.275v-4.277zm0 7.158h-4.275v4.276h4.275v-4.276zm0 7.172h-4.275v4.276h4.275v-4.276zm0 7.158h-4.275v4.276h4.275v-4.276zm0 7.172h-4.275v4.276h4.275v-4.276zm0 7.157h-4.275v4.276h4.275v-4.276zm0 7.173h-4.275v4.276h4.275v-4.276zm0 7.156h-4.275v4.277h4.275v-4.277z"/><path fill="#F5F5F5" d="M374.999 575.687c160.624 0 290.835-7.605 290.835-16.986 0-9.38-130.211-16.985-290.835-16.985-160.624 0-290.835 7.605-290.835 16.985 0 9.381 130.211 16.986 290.835 16.986z"/><path fill="#7B78F7" d="M459.407 52.492s.54 27.309 12.555 29.68c12.015 2.37 28.5-29.68 28.5-29.68s-10.065 31.81-6.765 36.686c3.3 4.877 46.02-14.134 46.02-14.134s-25.845 30.459-23.01 35.711c2.835 5.252 23.01 2.881 23.01 2.881s-21 3.001-21.765 13.054c-.765 10.053 44.325 23.737 44.325 23.737s-42.465-2.371-45.57 4.757c-3.105 7.127 9.96 23.362 9.96 23.362s-11.685-13.729-22.995-11.494c-11.31 2.236 3 53.402 3 53.402s-26.745-33.671-33-33.746c-6.255-.075-8.28 27.339-8.28 27.339s-2.535-27.009-7.695-26.874c-5.16.135-12.57 33.281-12.57 33.281s5.055-35.396 0-37.512c-5.055-2.116-39.36 41.308-39.36 41.308s19.05-47.715 16.89-51.541c-2.16-3.826-34.77 10.143-34.77 10.143s26.115-20.556 23.715-28.854c-2.4-8.297-54-8.912-54-8.912s43.5-7.713 48.165-12.469c4.665-4.757-25.695-32.635-25.695-32.635s32.61 8.897 36.525 6.527c3.915-2.371-11.37-36.806-17.085-45.12 0 0 25.14 29.455 32.85 27.79 7.71-1.666 6.615-30.16 6.615-30.16s8.82 17.21 14.745 17.21c5.925 0 5.685-23.737 5.685-23.737z"/><path fill="#fff" d="M459.407 52.492s.54 27.309 12.555 29.68c12.015 2.37 28.5-29.68 28.5-29.68s-10.065 31.81-6.765 36.686c3.3 4.877 46.02-14.134 46.02-14.134s-25.845 30.459-23.01 35.711c2.835 5.252 23.01 2.881 23.01 2.881s-21 3.001-21.765 13.054c-.765 10.053 44.325 23.737 44.325 23.737s-42.465-2.371-45.57 4.757c-3.105 7.127 9.96 23.362 9.96 23.362s-11.685-13.729-22.995-11.494c-11.31 2.236 3 53.402 3 53.402s-26.745-33.671-33-33.746c-6.255-.075-8.28 27.339-8.28 27.339s-2.535-27.009-7.695-26.874c-5.16.135-12.57 33.281-12.57 33.281s5.055-35.396 0-37.512c-5.055-2.116-39.36 41.308-39.36 41.308s19.05-47.715 16.89-51.541c-2.16-3.826-34.77 10.143-34.77 10.143s26.115-20.556 23.715-28.854c-2.4-8.297-54-8.912-54-8.912s43.5-7.713 48.165-12.469c4.665-4.757-25.695-32.635-25.695-32.635s32.61 8.897 36.525 6.527c3.915-2.371-11.37-36.806-17.085-45.12 0 0 25.14 29.455 32.85 27.79 7.71-1.666 6.615-30.16 6.615-30.16s8.82 17.21 14.745 17.21c5.925 0 5.685-23.737 5.685-23.737z" opacity=".8"/><path fill="#fff" d="M509.859 143.314c5.798-24.575-9.417-49.198-33.984-54.999-24.567-5.8-49.183 9.42-54.982 33.995-5.798 24.574 9.417 49.198 33.984 54.998 24.568 5.8 49.184-9.419 54.982-33.994z" opacity=".4"/><path fill="#263238" d="M665.839 461.473H74.629v77.259h591.21v-77.259z"/><path fill="#fff" d="M665.839 461.473H74.629v77.259h591.21v-77.259z" opacity=".6"/><path fill="#fff" d="M138.123 471.496H84.168v16.685h53.955v-16.685zm56.504 0h-53.955v16.685h53.955v-16.685zm133.035 25.432h-53.955v16.685h53.955v-16.685zm100.32-27.458h-53.955v16.686h53.955V469.47zm29.657 20.241h-53.955v16.686h53.955v-16.686zm197.007 27.279h-53.955v16.685h53.955V516.99zm-57.855.27h-53.955v16.685h53.955V517.26zm26.973-20.332h-53.955v16.685h53.955v-16.685zm-458.672-7.217h-53.955v16.685h53.955v-16.685zm139.441 27.279h-53.955v16.685h53.955V516.99z" opacity=".2"/><path fill="#263238" d="M668.853 450.474H71.883v15.995h596.97v-15.995z"/><path fill="#fff" d="M668.853 450.474H71.883v15.995h596.97v-15.995z" opacity=".7"/><path fill="#7B78F7" d="M213 533.015h-4.305v21.006H213v-21.006zm118.094 0h-4.305v21.006h4.305v-21.006zm50.473-144.12h-20.04v165.216h20.04V388.895z"/><path fill="#fff" d="M213 533.015h-4.305v21.006H213v-21.006zm118.094 0h-4.305v21.006h4.305v-21.006zm50.473-144.12h-20.04v165.216h20.04V388.895z" opacity=".6"/><path fill="#7B78F7" d="M408.869 557.682H184.484l6.36-7.307h211.65l6.375 7.307z"/><path fill="#fff" d="M408.872 557.682h-65.145l6.375-7.307h52.395l6.375 7.307z" opacity=".2"/><path fill="#7B78F7" d="m273.522 376.952-69.9 160.834a3.541 3.541 0 0 0 3.24 4.937h119.82a4.503 4.503 0 0 0 4.125-2.701l69.9-160.834a3.518 3.518 0 0 0-.284-3.346 3.522 3.522 0 0 0-2.956-1.591h-119.82a4.5 4.5 0 0 0-4.125 2.701z"/><path fill="#fff" d="m273.522 376.952-69.9 160.834a3.541 3.541 0 0 0 3.24 4.937h119.82a4.503 4.503 0 0 0 4.125-2.701l69.9-160.834a3.518 3.518 0 0 0-.284-3.346 3.522 3.522 0 0 0-2.956-1.591h-119.82a4.5 4.5 0 0 0-4.125 2.701z" opacity=".7"/><path fill="#000" d="m314.61 477.813 21.15-48.675h-46.365l-21.165 48.675h46.38zm-103.517 57.302a1.799 1.799 0 0 0-1.765 2.152 1.797 1.797 0 0 0 2.454 1.312 1.8 1.8 0 0 0-.689-3.464zm111.704 0a1.796 1.796 0 0 0-1.653 1.122 1.798 1.798 0 0 0 2.36 2.341 1.805 1.805 0 0 0 1.108-1.662 1.794 1.794 0 0 0-.533-1.279 1.816 1.816 0 0 0-1.282-.522zM279.48 378.767a1.799 1.799 0 0 0-1.663 1.112 1.798 1.798 0 0 0 1.312 2.455 1.806 1.806 0 0 0 1.847-.766c.198-.296.304-.644.304-1a1.815 1.815 0 0 0-1.8-1.801zm111.703 0a1.799 1.799 0 0 0-1.663 1.112 1.805 1.805 0 0 0 1.312 2.455 1.806 1.806 0 0 0 1.847-.766 1.799 1.799 0 0 0-1.496-2.801z" opacity=".2"/><path fill="#7B78F7" d="M410.024 533.015h-4.305v21.006h4.305v-21.006zm118.082 0h-4.305v21.006h4.305v-21.006zm50.489-144.12h-20.04v165.216h20.04V388.895z"/><path fill="#fff" d="M410.024 533.015h-4.305v21.006h4.305v-21.006zm118.082 0h-4.305v21.006h4.305v-21.006zm50.489-144.12h-20.04v165.216h20.04V388.895z" opacity=".6"/><path fill="#263238" d="m623.969 315.868-99.21 228.265H377.984l99.21-228.265h146.775z"/><path fill="#fff" d="m623.969 315.868-99.21 228.265H377.984l99.21-228.265h146.775z" opacity=".6"/><path fill="#263238" d="M563.04 447.938h-33.075l-12.945 29.799h33.075l12.945-29.799zm-60.286 62.629h33.075l12.945-29.799h-33.075l-12.945 29.799zm24.243-62.629h-33.075l-12.945 29.799h33.075l12.945-29.799zm78.851-98.505h-33.075l-12.945 29.799h33.075l12.945-29.799zM466.695 510.568h33.075l12.96-29.799h-33.075l-12.96 29.799zm110.625-95.46h-33.09l-12.945 29.8h33.075l12.96-29.8zm14.266-32.83h-33.075l-12.96 29.784h33.075l12.96-29.784zm-135.362 62.63 12.945-29.8h-32.13l-12.945 29.8h32.13zm-14.281 32.829 12.959-29.799h-32.129l-12.961 29.799h32.131zm55.772-128.304H465.57l-12.945 29.799h32.145l12.945-29.799zm-70.038 161.135 12.96-29.799h-32.145l-12.945 29.799h32.13zm42.812-98.506 12.96-29.784h-32.145l-12.945 29.784h32.13zm148.635-93.148h-33.075l-11.955 27.488h33.075l11.955-27.488zM534.51 513.598h-33.075l-11.955 27.504h33.075l11.955-27.504zm-108.152 0h-32.13l-11.955 27.504h32.13l11.955-27.504zm72.678-167.196 11.94-27.488h-32.13l-11.955 27.488h32.145zm6.179 68.706H472.14l-12.945 29.8h33.075l12.945-29.8zm-14.265 32.83h-33.075l-12.945 29.799h33.075l12.945-29.799zm92.127-129.024h-33.075l-11.955 27.488h33.075l11.955-27.488zm-84.613 194.684h-33.09l-11.94 27.504h33.075l11.955-27.504zm71.341-164.165H536.73l-12.945 29.799h33.075l12.945-29.799zm-14.266 32.845h-33.075l-12.96 29.784h33.075l12.96-29.784zM430.648 510.567h33.075l12.96-29.799h-33.075l-12.96 29.799zm19.818 30.535 11.94-27.504h-33.075l-11.94 27.504h33.075zm96.568-222.188h-33.075l-11.955 27.488h33.075l11.955-27.488zm-5.776 96.194h-33.075l-12.945 29.8h33.075l12.945-29.8zm-7.5-65.675h-33.075l-12.945 29.799h33.075l12.945-29.799zm-14.262 32.845h-33.075l-12.96 29.784h33.075l12.96-29.784z"/><path fill="#fff" d="m571.892 315.868-131.415 84.521 36.72-84.521h94.695zm42.059 0L424.156 437.93l8.94-20.571 157.815-101.491h23.04zm1.5 19.611-4.485 10.293-203.7 130.99 4.485-10.308 203.7-130.975zm-83.102 191.204-7.59 17.45h-19.56l27.15-17.45zm12.888-29.664-7.065 16.265-47.97 30.849h-18.225l73.26-47.114zm13.304-30.61-3.525 8.103-108.27 69.621h-9.09l120.885-77.724z" opacity=".1"/><path fill="#7B78F7" d="M611.97 557.682h-224.4l6.375-7.307h211.65l6.375 7.307z"/><path fill="#fff" d="M611.969 557.682h-65.145l6.375-7.307h52.395l6.375 7.307z" opacity=".2"/><path fill="#263238" d="M333.181 519.196h-33.63v2.475h4.05l8.31 10.338h1.5l-8.325-10.338h28.095v-2.475z"/><path fill="#fff" d="M333.181 519.196h-33.63v2.475h4.05l8.31 10.338h1.5l-8.325-10.338h28.095v-2.475z" opacity=".2"/><path fill="#263238" d="M378.252 510.133a21.183 21.183 0 0 0-10.32-12.004h-50.55l-6.39 3.001 9.84 29.214h50.535l6.405-3.001a24.836 24.836 0 0 0 .48-17.21z"/><path fill="#263238" d="M371.548 530.329h-81.345v32.995h81.345v-32.995z"/><path fill="#fff" d="M371.55 530.329H321v32.995h50.55v-32.995zm6.223-3.031h-50.535a24.84 24.84 0 0 0 .48-17.165 21.186 21.186 0 0 0-10.335-12.004h50.55a21.187 21.187 0 0 1 10.32 12.004 24.84 24.84 0 0 1-.48 17.165z" opacity=".2"/><path fill="#fff" d="m377.772 527.298-6.405 3.031h-50.535l6.405-3.031h50.535z" opacity=".1"/><path fill="#000" d="M342.073 510.568a43.674 43.674 0 0 0 15.735 4.126c8.115.3 10.5-4.126 10.5-4.126l-1.125-3.466s-1.95 3.18-7.785 3.811c-5.835.63-18.285-3.932-18.285-3.932l.96 3.587z" opacity=".2"/><path fill="#263238" d="M341.098 506.981s8.01-3.961 15.225-3.271a22.92 22.92 0 0 1 10.845 3.391l1.125 3.466s-10.86-6.722-26.22 0l-.975-3.586zM182.846 182.798 180 406.229l146.763 1.87 2.846-223.43-146.763-1.871z"/><path fill="#fff" d="M182.846 182.798 180 406.229l146.763 1.87 2.846-223.43-146.763-1.871z" opacity=".6"/><path fill="#263238" d="M291.372 313.456 291 342.623l33.072.422.372-29.167-33.072-.422zm-.411 32.145-.371 29.166 33.072.422.372-29.167-33.073-.421zm-35.64-32.603-.372 29.167 33.073.421.371-29.166-33.072-.422zm37.277-95.959-.371 29.167 33.072.422.371-29.167-33.072-.422zm-37.68 128.088-.371 29.166 33.072.422.372-29.167-33.073-.421zm36.852-63.799-.372 29.167 33.073.421.371-29.166-33.072-.422zm.414-32.144-.372 29.166 33.073.422.371-29.167-33.072-.421zM184.59 279.941l-.371 29.167 32.127.409.372-29.166-32.128-.41zm-.414 32.145-.371 29.166 32.127.41.372-29.167-32.128-.409zm1.238-96.402-.371 29.166 32.127.41.372-29.167-32.128-.409zm-1.652 128.545-.371 29.167 32.127.409.372-29.166-32.128-.41zM185 247.812l-.371 29.167 32.127.409.372-29.166-32.128-.41zm107.98-60.652-.343 26.916 33.072.421.343-26.916-33.072-.421zm-2.434 190.57-.343 26.916 33.072.422.343-26.916-33.072-.422zm-107.195-1.37-.343 26.916 32.127.409.343-26.916-32.127-.409zm2.445-190.57-.343 26.916 32.128.409.342-26.916-32.127-.409zm33.896 94.62-.372 29.166 33.073.422.371-29.167-33.072-.421zm-.399 32.129-.371 29.167 33.072.421.372-29.166-33.073-.422zm37.632-125.838-.343 26.916 33.072.422.343-26.916-33.072-.422zm-2.414 190.57-.343 26.916 33.072.422.343-26.917-33.072-.421zm2.044-160.691-.371 29.167 33.072.421.371-29.166-33.072-.422zm-.41 32.144-.372 29.167 33.073.421.371-29.166-33.072-.422zm-37.277 95.944-.372 29.167 33.072.421.372-29.166-33.072-.422zm-.4 32.145-.343 26.916 33.072.422.343-26.917-33.072-.421zm2.433-190.57-.342 26.916 33.072.421.343-26.916-33.073-.421zm34.846 94.626-.372 29.166 33.072.422.372-29.167-33.072-.421zm-35.243-64.747-.371 29.166 33.072.422.372-29.167-33.073-.421zm-.398 32.128-.372 29.167 33.073.421.371-29.166-33.072-.422z"/><path fill="#fff" d="m277.546 183.992-95.745 81.52 1.065-82.72 94.68 1.2zm42.064.541L181.34 302.259l.255-20.136 114.975-97.89 23.04.3zm9.764 19.31-.135 10.098-148.395 126.324.135-10.083 148.395-126.339zm-2.385 187.152-.225 17.09-19.545-.255 19.77-16.835zm.373-29.019-.21 15.905-34.935 29.769-18.225-.24 53.37-45.434zm.375-29.979-.105 7.938-78.87 67.16-9.09-.12 88.065-74.978z" opacity=".1"/><path fill="#E4897B" d="M173.762 252.788s-18.105 8.027-24 .84c-5.895-7.187 26.175-45.119 26.175-45.119s.525-11.148 2.115-13.114a20.514 20.514 0 0 1 5.175-3.826l1.185 21.922-3.33.315s-17.16 23.107-16.845 25.103c.315 1.995 9.51-2.191 9.51-2.191l.015 16.07z"/><path fill="#7B78F7" d="M215.748 310.376s15-32.005 13.89-39.567c-1.11-7.563-26.34 25.252-26.34 25.252l-2.025 11.239 14.475 3.076z"/><path fill="#fff" d="M215.748 310.376s15-32.005 13.89-39.567c-1.11-7.563-26.34 25.252-26.34 25.252l-2.025 11.239 14.475 3.076z" opacity=".4"/><path fill="#000" d="M214.728 309.535s15-32.005 13.875-39.582c-1.125-7.577-26.34 25.253-26.34 25.253l-2.025 11.238 14.49 3.091z" opacity=".2"/><path fill="#E4897B" d="m240.152 552.865 11.79 1.23.585-6.827 1.62-18.575-11.79-1.261-1.785 20.541-.42 4.892zm-102.359-1.5h11.415l.555-2.566.075-.33 3.555-16.49.075-.33 1.365-6.317h-11.43l-5.61 26.033z"/><path fill="#000" d="m242.359 527.432-1.785 20.541 11.955-.705 1.62-18.575-11.79-1.261zm-104.238 22.492h.015l11.685-1.455h.015l3.465-15.905h-.015l-11.61.915-3.45 15.95-.105.495z" opacity=".2"/><path fill="#263238" d="M150.783 550.674h-13.875a.993.993 0 0 0-.96.795l-2.265 10.159a1.707 1.707 0 0 0 1.305 2.01h.375c4.5-.075 7.755-.345 13.395-.345 3.465 0 13.935.36 18.735.36 4.8 0 5.415-4.741 3.45-5.176-8.805-1.921-15.42-4.577-18.24-7.098a2.776 2.776 0 0 0-1.92-.705zm102.405-.359h-13.875a1.002 1.002 0 0 0-.975.78l-2.25 10.173a1.68 1.68 0 0 0 1.305 1.996c.124.016.25.016.375 0 4.5-.075 7.755-.345 13.38-.345 3.48 0 13.95.36 18.735.36s5.43-4.742 3.465-5.177c-8.805-1.92-15.42-4.576-18.24-7.097a2.775 2.775 0 0 0-1.92-.69z"/><path fill="#7B78F7" d="m255.229 542.647-16.86.54c6.135-112.685 9-118.432-45.69-171.653-1.275 16.1-2.715 32.8-4.125 46.724-.885 8.613-1.14 16.13-2.58 21.652-9.735 37.317-33.15 103.382-33.15 103.382l-16.5.735s20.58-90.538 22.695-120.037c2.775-38.712-21.285-83.305 2.115-125.213l54.585 10.623-.39 13.504c52.155 76.179 61.695 92.654 39.9 219.743z"/><path fill="#fff" d="m255.229 542.647-16.86.54c6.135-112.685 9-118.432-45.69-171.653-1.275 16.1-2.715 32.8-4.125 46.724-.885 8.613-1.14 16.13-2.58 21.652-9.735 37.317-33.15 103.382-33.15 103.382l-16.5.735s20.58-90.538 22.695-120.037c2.775-38.712-21.285-83.305 2.115-125.213l54.585 10.623-.39 13.504c52.155 76.179 61.695 92.654 39.9 219.743z" opacity=".4"/><path fill="#E4897B" d="M244.504 268.978s31.05 5.611 36.975 4.651c5.925-.96 37.275-25.733 37.275-25.733s10.35-.57 10.89-4.081c.54-3.511 1.95-9.798-1.02-9.588-2.97.21-11.64 4.066-11.64 4.066l-1.125 2.881s-34.5 20.872-35.865 21.322c-1.365.45-31.08-7.683-31.08-7.683l-4.41 14.165z"/><path fill="#7B78F7" d="M188.297 228.241c-10.2 0-18.975 6.587-28.305 11.268l6.72 16.745 21.42-1.35.165-26.663z"/><path fill="#E4897B" d="M239.688 225.78c-.326.387-.671.758-1.035 1.11a14.238 14.238 0 0 1-7.5 3.841c-.719.122-1.446.192-2.175.21a12.858 12.858 0 0 1-12.735-9.003c-2.34-6.932.42-12.258 4.38-21.651a13.92 13.92 0 0 1 23.385-4.006c7.11 8.057 1.68 22.251-4.32 29.499z"/><path fill="#000" d="M231.109 230.732a15.4 15.4 0 0 1-2.175.21 12.95 12.95 0 0 1-10.215-4.502 15.275 15.275 0 0 1 3.15-2.295 20.035 20.035 0 0 1 9.24 6.587z" opacity=".2"/><path fill="#263238" d="M249.152 201.142c-.54 0-4.71 3.556-4.98 4.877a17.453 17.453 0 0 1-8.265 10.203c-3.54 1.605-9 9.227-9 9.227s-5.88-4.936-12-5.041a33.996 33.996 0 0 1-.105-28.839l34.35 9.573z"/><path fill="#fff" d="M249.152 201.142c-.54 0-4.71 3.556-4.98 4.877a17.453 17.453 0 0 1-8.265 10.203c-3.54 1.605-9 9.227-9 9.227s-5.88-4.936-12-5.041a33.996 33.996 0 0 1-.105-28.839l34.35 9.573z" opacity=".2"/><path fill="#E4897B" d="M233.284 213.146a6.624 6.624 0 0 0 1.05 5.537c1.5 1.695 3.99-.315 5.055-3.196.945-2.551 1.365-6.602-.855-7.112-2.22-.511-4.695 1.995-5.25 4.771z"/><path fill="#263238" d="M241.698 204.323s1.095 24.247-17.55 24.457v.961s16.74 1.5 20.64-23.573l-3.09-1.845z"/><path fill="#fff" d="M212.54 198.232a7.882 7.882 0 0 0 4.62 3.991c3.6 1.336 20.745-3.121 20.745-3.121l3.075 2.296s-17.25 5.687-23.82 4.741c-6.57-.945-5.52-5.821-5.52-5.821l.9-2.086z"/><path fill="#E4897B" d="M203.297 230.941c2.49 6.302 20.85 7.968 20.85 7.968a18.724 18.724 0 0 1 0-4.847 13.073 13.073 0 0 1 1.86-4.831 28.028 28.028 0 0 1 1.605-2.416l-12-6.362c-2.76 4.997-5.61 7.788-12.315 10.488z"/><path fill="#7B78F7" d="M252.843 208.3a2.995 2.995 0 0 1-.615 3.361c-1.5 1.35-4.86 0-4.86 0s-11.46-18.201-34.35-17.601c0 0-1.68-2.355-1.335-3.946.345-1.59 3.645-2.686 3.645-2.686a32.488 32.488 0 0 1 17.79-8.702c10.785-1.381 21.975 10.098 22.5 12.919.525 2.82-2.13 6.316-2.13 6.316a25.39 25.39 0 0 1-.645 10.339z"/><path fill="#000" d="M252.844 208.3c-10.935-18.636-37.5-20.872-37.5-20.872a30.295 30.295 0 0 1 6-4.501c.21 2.31 2.865 3.256 5.01 3.466 3 .3 15.21-3.076 21.09 1.08a14.425 14.425 0 0 1 6.075 10.503 25.41 25.41 0 0 1-.675 10.324zm-60.168 163.159c-1.275 16.1-2.715 32.845-4.125 46.754-2.055-20.091-4.59-34.42-4.59-34.42s-2.355-1.936-8.865-12.334 0-29.784 0-29.784c-.21 18.02 17.58 29.784 17.58 29.784z" opacity=".2"/><path fill="#7B78F7" d="m257.102 540.832-.81 4.726h-19.8v-4.366l20.61-.36zm-102.33 1.815-1.905 4.367h-18.015l.33-4.367h19.59zm87.752-296.746c9.63 5.777 17.25 11.299 17.25 11.299l-6.945 14.809-27.735-4.846a91.059 91.059 0 0 1 7.245-13.744c4.83-7.578 10.185-7.518 10.185-7.518z"/><path fill="#fff" d="m257.102 540.832-.81 4.726h-19.8v-4.366l20.61-.36zm-102.33 1.815-1.905 4.367h-18.015l.33-4.367h19.59z" opacity=".4"/><path fill="#263238" d="m159.257 300.323 18.841 3.571-1.156 4.696-19.754-3.931 2.069-4.336zm21.962 4.156 23.175 4.411-.42 5.071-23.775-4.726 1.02-4.756zm35.624 6.767-.06 5.282-9.51-1.906.285-5.146 9.285 1.77z"/><path fill="#7B78F7" d="M161.195 298.763s12.135-57.453 24.525-69.892c0 0 31.5-5.717 56.805 17.015 0 0-21.45 36.807-26.745 63.5l-54.585-10.623z"/><path fill="#fff" d="M181.215 305.829h-.255l-3-.675a1.136 1.136 0 0 1-.843-1.321c.039-.19.128-.366.258-.51l2.16-2.49a1.122 1.122 0 0 1 1.622-.081c.146.14.249.319.298.516l.87 3.181a1.133 1.133 0 0 1-.202.964 1.14 1.14 0 0 1-.878.446l-.03-.03zm-.87-4.666a.39.39 0 0 0-.27.12l-2.175 2.506a.344.344 0 0 0 0 .36.329.329 0 0 0 .255.24l3 .675a.301.301 0 0 0 .345-.105.328.328 0 0 0 .09-.345l-.855-3.181a.343.343 0 0 0-.27-.255l-.12-.015zm19.952-49.951c-.154 0-.307-.03-.45-.09l-2.85-1.26a1.116 1.116 0 0 1-.645-.886 1.07 1.07 0 0 1 .42-1.02l2.625-2.026a1.087 1.087 0 0 1 1.14-.135 1.065 1.065 0 0 1 .645.946l.225 3.286a1.095 1.095 0 0 1-.48.99 1.05 1.05 0 0 1-.63.195zm-.225-4.771a.342.342 0 0 0-.225.075l-2.61 2.025a.42.42 0 0 0-.15.345.368.368 0 0 0 .225.285l2.835 1.261a.392.392 0 0 0 .36 0 .36.36 0 0 0 .15-.33l-.21-3.286a.389.389 0 0 0-.225-.315l-.15-.06z"/><path fill="#263238" d="M197.433 248.782s-8.835 16.43-18.195 50.145l3.6 1.065s9.465-35.11 17.4-49.905l-2.805-1.305z"/><path fill="#fff" d="M180.197 302.243a.374.374 0 0 1-.3-.435l.45-2.116a.386.386 0 0 1 .164-.24.396.396 0 0 1 .286-.06.38.38 0 0 1 .289.303.388.388 0 0 1-.004.148l-.45 2.115a.375.375 0 0 1-.435.285z"/><path fill="#fff" d="m183.001 300.367-3.795-1.065a.386.386 0 0 1-.227-.179.39.39 0 0 1-.043-.287.372.372 0 0 1 .18-.223.373.373 0 0 1 .285-.032l3.81 1.066a.374.374 0 0 1-.105.735l-.105-.015z"/><path fill="#263238" d="M200.238 246.951a68.294 68.294 0 0 1 26.775-12.124l4.095 2.161s-10.86 1.666-30.63 12.874l-.24-2.911zm-2.806 1.501 2.235-1.501s.24-15.244 1.74-18.755l-2.535.09a92.097 92.097 0 0 0-1.44 20.166z"/><path fill="#7B78F7" d="m313.742 241.37 4.29 8.642 1.185-1.065s10.62-.465 11.295-1.71c.675-1.246 3.255-13.745 1.5-14.435-1.755-.69-15.105 3.946-15.615 4.066-.51.12-1.14 3.587-1.14 3.587l-1.515.915zm-139.351-32.86 6.21 7.322.93-1.5 3-.901-1.185-21.921s-5.745 3.436-6 3.826c-.255.39-1.74 12.904-1.74 12.904l-1.215.27z"/></svg>