<svg xmlns="http://www.w3.org/2000/svg" width="187" height="45" fill="none"><path fill="#A5A5A5" d="M56.977 31.763h12.946v-3.9h-8.345V13.175h-4.601v18.588zm20.616-2.6c-1.846 0-2.808-1.612-2.808-4.03 0-2.417.962-4.055 2.808-4.055 1.846 0 2.834 1.638 2.834 4.056 0 2.417-.988 4.03-2.834 4.03zm.026 3.016c4.29 0 7.097-3.042 7.097-7.045 0-4.004-2.807-7.045-7.097-7.045-4.263 0-7.123 3.041-7.123 7.045 0 4.003 2.86 7.045 7.123 7.045zm14.521 4.185c1.976 0 3.718-.442 4.888-1.482 1.066-.962 1.768-2.417 1.768-4.42v-12.01H94.74v1.43h-.052c-.78-1.118-1.975-1.82-3.743-1.82-3.302 0-5.59 2.756-5.59 6.656 0 4.081 2.782 6.317 5.772 6.317 1.612 0 2.625-.65 3.405-1.534h.104v1.326c0 1.612-.754 2.547-2.547 2.547-1.404 0-2.106-.597-2.34-1.3H85.64c.416 2.782 2.834 4.29 6.5 4.29zm-.025-8.475c-1.586 0-2.626-1.3-2.626-3.301 0-2.028 1.04-3.328 2.626-3.328 1.767 0 2.703 1.508 2.703 3.302 0 1.871-.858 3.327-2.703 3.327zm15.019 1.274c-1.846 0-2.807-1.612-2.807-4.03 0-2.417.961-4.055 2.807-4.055s2.833 1.638 2.833 4.056c0 2.417-.987 4.03-2.833 4.03zm.026 3.016c4.289 0 7.097-3.042 7.097-7.045 0-4.004-2.808-7.045-7.097-7.045-4.263 0-7.123 3.041-7.123 7.045 0 4.003 2.86 7.045 7.123 7.045zm8.336-.416h4.237v-13.31h-4.237v13.31zm0-15.156h4.237v-3.432h-4.237v3.432zm6.074 19.549h4.238v-5.771h.052c.832 1.118 2.053 1.794 3.769 1.794 3.483 0 5.798-2.756 5.798-7.071 0-4.004-2.158-7.046-5.694-7.046-1.82 0-3.119.806-4.03 2.002h-.077v-1.611h-4.056v17.703zm6.967-7.253c-1.819 0-2.86-1.482-2.86-3.64 0-2.157.937-3.795 2.783-3.795 1.82 0 2.677 1.508 2.677 3.796 0 2.261-.988 3.64-2.6 3.64zm13.789 3.276c3.484 0 6.057-1.508 6.057-4.42 0-3.405-2.755-4.003-5.095-4.393-1.69-.312-3.198-.442-3.198-1.378 0-.832.806-1.222 1.846-1.222 1.17 0 1.976.364 2.132 1.56h3.899c-.207-2.626-2.236-4.264-6.005-4.264-3.145 0-5.745 1.456-5.745 4.264 0 3.12 2.469 3.744 4.784 4.133 1.767.313 3.379.442 3.379 1.638 0 .858-.807 1.326-2.08 1.326-1.404 0-2.287-.65-2.444-1.976h-4.002c.129 2.938 2.573 4.732 6.472 4.732zm11.813-.026c1.846 0 3.015-.728 3.978-2.028h.077v1.638h4.056v-13.31h-4.238v7.434c0 1.586-.884 2.678-2.34 2.678-1.352 0-2.001-.806-2.001-2.262v-7.85h-4.212v8.734c0 2.964 1.613 4.966 4.68 4.966zm9.955-.39h4.237v-7.461c0-1.586.779-2.704 2.106-2.704 1.273 0 1.871.832 1.871 2.262v7.903h4.239v-7.461c0-1.586.753-2.704 2.104-2.704 1.275 0 1.872.832 1.872 2.262v7.903h4.238v-8.657c0-2.99-1.507-5.044-4.523-5.044-1.716 0-3.146.728-4.186 2.34H176c-.676-1.43-2.001-2.34-3.743-2.34-1.924 0-3.198.91-4.03 2.288h-.078v-1.898h-4.055v13.31z"/><path fill="#A5A5A5" fill-rule="evenodd" d="M23.207 43.678c11.965 0 21.664-9.7 21.664-21.664C44.87 10.05 35.17.35 23.207.35c-11.965 0-21.664 9.7-21.664 21.664 0 11.965 9.7 21.664 21.664 21.664zm3.344-26.59a4.729 4.729 0 1 0-6.688 0l3.344 3.344 3.344-3.344zm1.582 8.27a4.729 4.729 0 1 0 0-6.688l-3.344 3.344 3.343 3.344zm-1.582 8.27a4.729 4.729 0 0 0 0-6.688l-3.344-3.344-3.344 3.344a4.729 4.729 0 1 0 6.688 6.687zm-14.957-8.27a4.729 4.729 0 0 1 6.687-6.688l3.344 3.344-3.344 3.344a4.729 4.729 0 0 1-6.687 0z" clip-rule="evenodd"/></svg>