<svg xmlns="http://www.w3.org/2000/svg" width="28" height="28" fill="none"><path stroke="#fff" stroke-linecap="round" stroke-linejoin="round" stroke-width="1.5" d="M25.23 9.917c.764-2.645.55-4.94-.829-6.318-2.916-2.916-9.936-.623-15.68 5.122A28.892 28.892 0 0 0 7 10.599M21 17.4a28.904 28.904 0 0 1-1.722 1.878c-5.744 5.745-12.764 8.038-15.68 5.122-1.478-1.479-1.618-4.013-.646-6.901"/><path stroke="#fff" stroke-linecap="round" stroke-linejoin="round" stroke-width="1.5" d="m14.875 10.5-2.27 2.684c-.277.36-.416.539-.33.677.086.139.336.139.835.139h1.78c.5 0 .749 0 .835.139.086.138-.053.318-.33.677L13.11 17.5m-2.026 3.896A28.64 28.64 0 0 1 8.72 19.28C2.977 13.535.684 6.515 3.599 3.6c1.479-1.48 4.013-1.62 6.901-.647m6.417 21.885c3.128 1.193 5.907 1.14 7.484-.437 2.916-2.916.623-9.936-5.121-15.68a28.655 28.655 0 0 0-2.363-2.118"/></svg>