<svg xmlns="http://www.w3.org/2000/svg" width="183" height="45" fill="none"><g fill="#A5A5A5" clip-path="url(#a)"><path d="M53.773 31.361H66.72v-3.9h-8.345V12.775h-4.602V31.36zm20.617-2.599c-1.846 0-2.808-1.612-2.808-4.03s.962-4.055 2.808-4.055c1.846 0 2.834 1.637 2.834 4.055 0 2.418-.988 4.03-2.834 4.03zm.026 3.015c4.29 0 7.097-3.041 7.097-7.045 0-4.003-2.808-7.045-7.097-7.045-4.263 0-7.123 3.042-7.123 7.045 0 4.004 2.86 7.045 7.123 7.045zm14.521 4.186c1.976 0 3.718-.442 4.888-1.482 1.066-.962 1.768-2.418 1.768-4.42v-12.01h-4.056v1.43h-.052c-.78-1.118-1.976-1.82-3.743-1.82-3.302 0-5.59 2.756-5.59 6.655 0 4.082 2.782 6.317 5.772 6.317 1.611 0 2.625-.65 3.405-1.534h.104v1.326c0 1.612-.754 2.548-2.548 2.548-1.403 0-2.105-.598-2.34-1.3h-4.107c.416 2.782 2.834 4.29 6.5 4.29zm-.025-8.475c-1.586 0-2.626-1.3-2.626-3.302 0-2.028 1.04-3.328 2.626-3.328 1.767 0 2.703 1.508 2.703 3.302 0 1.872-.858 3.328-2.703 3.328zm15.019 1.274c-1.846 0-2.808-1.612-2.808-4.03s.962-4.055 2.808-4.055c1.846 0 2.834 1.637 2.834 4.055 0 2.418-.988 4.03-2.834 4.03zm.026 3.015c4.289 0 7.097-3.041 7.097-7.045 0-4.003-2.808-7.045-7.097-7.045-4.263 0-7.123 3.042-7.123 7.045 0 4.004 2.86 7.045 7.123 7.045zm8.336-.416h4.237v-13.31h-4.237v13.31zm0-15.156h4.237v-3.431h-4.237v3.431zm6.074 19.55h4.238v-5.772h.052c.832 1.118 2.053 1.794 3.77 1.794 3.483 0 5.796-2.756 5.796-7.071 0-4.003-2.158-7.045-5.693-7.045-1.82 0-3.119.806-4.029 2.002h-.078V18.05h-4.056v17.704zm6.968-7.254c-1.82 0-2.86-1.481-2.86-3.639 0-2.158.936-3.796 2.781-3.796 1.82 0 2.678 1.508 2.678 3.796 0 2.262-.988 3.64-2.599 3.64zm13.787 3.276c3.483 0 6.057-1.508 6.057-4.42 0-3.405-2.755-4.003-5.096-4.393-1.689-.312-3.196-.442-3.196-1.378 0-.831.805-1.221 1.845-1.221 1.17 0 1.976.364 2.131 1.56h3.9c-.208-2.626-2.235-4.264-6.005-4.264-3.146 0-5.746 1.456-5.746 4.263 0 3.12 2.47 3.744 4.784 4.134 1.768.312 3.379.442 3.379 1.638 0 .857-.805 1.325-2.079 1.325-1.404 0-2.287-.65-2.444-1.975h-4.004c.131 2.937 2.574 4.731 6.474 4.731zm11.814-.026c1.846 0 3.017-.728 3.978-2.028h.078v1.638h4.055v-13.31h-4.236v7.435c0 1.586-.884 2.677-2.34 2.677-1.352 0-2.002-.805-2.002-2.261V18.05h-4.211v8.735c0 2.963 1.611 4.965 4.678 4.965zm9.955-.39h4.237v-7.46c0-1.587.779-2.704 2.106-2.704 1.273 0 1.871.831 1.871 2.261v7.903h4.237v-7.46c0-1.587.754-2.704 2.106-2.704 1.274 0 1.872.831 1.872 2.261v7.903h4.237v-8.657c0-2.99-1.508-5.043-4.523-5.043-1.715 0-3.145.728-4.185 2.34h-.052c-.676-1.43-2.003-2.34-3.743-2.34-1.925 0-3.199.91-4.03 2.288h-.078V18.05h-4.055v13.31zM27.92 2.142 23.66 1l-3.59 13.399-3.241-12.097-4.26 1.142 3.501 13.069-8.722-8.722-3.119 3.118 9.568 9.568-11.915-3.193-1.142 4.26 13.019 3.489a8.821 8.821 0 1 1 17.19-.012l11.83 3.17 1.142-4.26-13.07-3.503 11.915-3.193-1.141-4.26-13.07 3.502 8.722-8.722-3.118-3.119-9.435 9.435L27.92 2.14z"/><path d="M30.937 25.07a8.805 8.805 0 0 1-2.195 4.043l8.571 8.571 3.12-3.118-9.496-9.496zm-2.283 4.133a8.814 8.814 0 0 1-3.941 2.33l3.119 11.64 4.26-1.142-3.438-12.828zm-4.1 2.373a8.837 8.837 0 0 1-2.202.277 8.83 8.83 0 0 1-2.353-.318l-3.122 11.651 4.26 1.142 3.417-12.753zm-4.706-.083a8.82 8.82 0 0 1-3.873-2.365L7.383 37.72l3.119 3.119 9.346-9.346zm-3.944-2.442a8.802 8.802 0 0 1-2.14-3.992l-11.87 3.18 1.142 4.26 12.868-3.448z"/></g><defs><clipPath id="a"><path fill="#fff" d="M.396 0h182.603v44.417H.396z"/></clipPath></defs></svg>