<svg xmlns="http://www.w3.org/2000/svg" width="186" height="45" fill="none"><path fill="#A5A5A5" d="M57.103 30.479H70.05v-3.9h-8.345V11.891h-4.602V30.48zM77.72 27.88c-1.846 0-2.808-1.613-2.808-4.03 0-2.418.962-4.056 2.808-4.056 1.846 0 2.834 1.638 2.834 4.056 0 2.417-.988 4.03-2.834 4.03zm.026 3.015c4.29 0 7.097-3.042 7.097-7.045 0-4.004-2.808-7.045-7.097-7.045-4.263 0-7.123 3.041-7.123 7.045 0 4.003 2.86 7.045 7.123 7.045zm14.521 4.185c1.976 0 3.718-.441 4.888-1.481 1.066-.962 1.768-2.418 1.768-4.42V17.17h-4.056v1.43h-.052c-.78-1.118-1.975-1.82-3.743-1.82-3.302 0-5.59 2.756-5.59 6.655 0 4.081 2.782 6.317 5.772 6.317 1.611 0 2.625-.65 3.405-1.534h.104v1.326c0 1.612-.754 2.548-2.547 2.548-1.404 0-2.106-.598-2.34-1.3h-4.108c.416 2.782 2.834 4.29 6.5 4.29zm-.025-8.474c-1.586 0-2.626-1.3-2.626-3.302 0-2.028 1.04-3.327 2.626-3.327 1.767 0 2.703 1.507 2.703 3.301 0 1.872-.858 3.328-2.703 3.328zm15.019 1.274c-1.846 0-2.808-1.613-2.808-4.03 0-2.418.962-4.056 2.808-4.056 1.846 0 2.834 1.638 2.834 4.056 0 2.417-.988 4.03-2.834 4.03zm.026 3.015c4.29 0 7.097-3.042 7.097-7.045 0-4.004-2.807-7.045-7.097-7.045-4.263 0-7.123 3.041-7.123 7.045 0 4.003 2.86 7.045 7.123 7.045zm8.334-.416h4.237v-13.31h-4.237v13.31zm0-15.156h4.237V11.89h-4.237v3.432zm6.078 19.55h4.237V29.1h.053c.832 1.118 2.053 1.794 3.769 1.794 3.483 0 5.797-2.756 5.797-7.071 0-4.004-2.157-7.045-5.693-7.045-1.82 0-3.119.806-4.03 2.002h-.077v-1.612h-4.056v17.704zm6.968-7.254c-1.82 0-2.86-1.481-2.86-3.64 0-2.157.936-3.795 2.782-3.795 1.82 0 2.677 1.508 2.677 3.796 0 2.262-.988 3.64-2.599 3.64zm13.787 3.276c3.483 0 6.057-1.508 6.057-4.42 0-3.405-2.755-4.003-5.094-4.393-1.691-.312-3.198-.442-3.198-1.378 0-.832.805-1.222 1.845-1.222 1.17 0 1.976.364 2.132 1.56h3.899c-.207-2.625-2.235-4.263-6.005-4.263-3.146 0-5.746 1.456-5.746 4.263 0 3.12 2.471 3.744 4.784 4.134 1.768.312 3.379.442 3.379 1.638 0 .857-.805 1.325-2.079 1.325-1.404 0-2.287-.65-2.444-1.975h-4.004c.131 2.937 2.574 4.731 6.474 4.731zm11.814-.026c1.845 0 3.015-.728 3.976-2.028h.079v1.638h4.056v-13.31h-4.238v7.435c0 1.586-.884 2.677-2.34 2.677-1.352 0-2.002-.806-2.002-2.261v-7.851h-4.211v8.735c0 2.963 1.611 4.965 4.68 4.965zm9.953-.39h4.237v-7.461c0-1.586.779-2.704 2.106-2.704 1.273 0 1.871.832 1.871 2.262v7.903h4.239v-7.461c0-1.586.753-2.704 2.104-2.704 1.275 0 1.872.832 1.872 2.262v7.903h4.238v-8.657c0-2.99-1.508-5.043-4.523-5.043-1.716 0-3.146.728-4.186 2.34h-.052c-.676-1.43-2.001-2.34-3.743-2.34-1.924 0-3.198.91-4.03 2.288h-.078v-1.898h-4.055v13.31z"/><path fill="#A5A5A5" fill-rule="evenodd" d="M23.334 43.477c11.964 0 21.664-9.7 21.664-21.664C44.998 9.85 35.298.15 23.334.15 11.369.15 1.67 9.85 1.67 21.813c0 11.965 9.7 21.664 21.664 21.664zm6.758-33.236c.33-1.168-.805-1.86-1.84-1.121L13.793 19.419c-1.123.8-.946 2.394.266 2.394h3.807v-.03h7.42l-6.046 2.134-2.666 9.468c-.328 1.169.805 1.86 1.841 1.122l14.457-10.3c1.123-.8.947-2.394-.265-2.394h-5.773l3.257-11.572z" clip-rule="evenodd"/></svg>