<svg xmlns="http://www.w3.org/2000/svg" width="186" height="46" fill="none"><g fill="#A5A5A5" clip-path="url(#a)"><path d="M56.195 31.795h12.947v-3.9h-8.345V13.208h-4.602v18.588zm20.617-2.6c-1.846 0-2.808-1.611-2.808-4.03 0-2.417.962-4.055 2.808-4.055 1.846 0 2.834 1.638 2.834 4.056s-.988 4.03-2.834 4.03zm.026 3.016c4.29 0 7.097-3.041 7.097-7.045s-2.808-7.045-7.097-7.045c-4.264 0-7.123 3.041-7.123 7.045 0 4.003 2.86 7.045 7.123 7.045zm14.522 4.186c1.975 0 3.717-.442 4.887-1.482 1.066-.962 1.767-2.418 1.767-4.42v-12.01H93.96v1.43h-.052c-.78-1.118-1.976-1.82-3.743-1.82-3.302 0-5.59 2.756-5.59 6.655 0 4.082 2.782 6.318 5.772 6.318 1.611 0 2.625-.65 3.405-1.534h.104v1.326c0 1.611-.754 2.547-2.548 2.547-1.404 0-2.105-.598-2.34-1.3H84.86c.416 2.782 2.834 4.29 6.5 4.29zm-.027-8.475c-1.585 0-2.625-1.3-2.625-3.302 0-2.027 1.04-3.327 2.625-3.327 1.768 0 2.704 1.508 2.704 3.301 0 1.872-.858 3.328-2.704 3.328zm15.022 1.273c-1.846 0-2.808-1.611-2.808-4.03 0-2.417.962-4.055 2.808-4.055 1.846 0 2.833 1.638 2.833 4.056s-.987 4.03-2.833 4.03zm.026 3.016c4.289 0 7.097-3.041 7.097-7.045s-2.808-7.045-7.097-7.045c-4.264 0-7.123 3.041-7.123 7.045 0 4.003 2.859 7.045 7.123 7.045zm8.334-.416h4.237v-13.31h-4.237v13.31zm0-15.156h4.237v-3.431h-4.237v3.431zm6.076 19.55h4.237v-5.771h.052c.832 1.117 2.055 1.794 3.77 1.794 3.484 0 5.797-2.756 5.797-7.072 0-4.003-2.158-7.045-5.693-7.045-1.819 0-3.12.806-4.029 2.002h-.078v-1.612h-4.056V36.19zm6.967-7.253c-1.819 0-2.859-1.482-2.859-3.64 0-2.157.935-3.795 2.781-3.795 1.82 0 2.677 1.508 2.677 3.795 0 2.262-.987 3.64-2.599 3.64zm13.788 3.275c3.483 0 6.057-1.507 6.057-4.419 0-3.406-2.757-4.004-5.096-4.394-1.689-.311-3.198-.442-3.198-1.377 0-.832.807-1.222 1.846-1.222 1.171 0 1.976.364 2.132 1.56h3.9c-.208-2.626-2.236-4.264-6.005-4.264-3.146 0-5.746 1.456-5.746 4.264 0 3.12 2.47 3.743 4.784 4.133 1.768.312 3.379.442 3.379 1.638 0 .858-.806 1.326-2.08 1.326-1.403 0-2.288-.65-2.443-1.976h-4.004c.13 2.938 2.574 4.731 6.474 4.731zm11.812-.026c1.846 0 3.016-.728 3.978-2.028h.078v1.638h4.055v-13.31h-4.237v7.435c0 1.586-.884 2.678-2.34 2.678-1.351 0-2.001-.806-2.001-2.262v-7.851h-4.211v8.735c0 2.963 1.611 4.965 4.678 4.965zm9.954-.39h4.239v-7.46c0-1.586.779-2.704 2.106-2.704 1.273 0 1.871.832 1.871 2.261v7.903h4.237v-7.46c0-1.586.754-2.704 2.106-2.704 1.274 0 1.872.832 1.872 2.261v7.903h4.237v-8.657c0-2.989-1.508-5.043-4.523-5.043-1.716 0-3.145.728-4.185 2.34h-.052c-.676-1.43-2.002-2.34-3.743-2.34-1.925 0-3.198.91-4.03 2.288h-.079v-1.898h-4.056v13.31z"/><path fill-rule="evenodd" d="M23.51 1.042c12.198 0 22.087 9.889 22.087 22.088 0 12.198-9.889 22.088-22.087 22.088-12.2 0-22.088-9.89-22.088-22.088 0-12.199 9.889-22.088 22.088-22.088zM44.75 23.13c0-11.73-9.51-21.24-21.24-21.24-.947 0-1.878.062-2.792.182.59-.052 1.188-.078 1.791-.078 11.21 0 20.296 9.086 20.296 20.295 0 11.21-9.087 20.296-20.296 20.296-10.612 0-19.322-8.144-20.22-18.524.488 11.299 9.802 20.309 21.22 20.309 11.731 0 21.24-9.51 21.24-21.24zm-2.793-.84c0-10.741-8.707-19.449-19.448-19.449-.872 0-1.73.058-2.572.169a18.744 18.744 0 0 1 1.572-.066c10.22 0 18.504 8.285 18.504 18.504 0 10.22-8.285 18.504-18.504 18.504-9.663 0-17.596-7.407-18.431-16.852.425 10.365 8.962 18.637 19.431 18.637 10.741 0 19.448-8.707 19.448-19.448zM21.51 3.791c9.751 0 17.656 7.905 17.656 17.656 0 9.751-7.905 17.656-17.656 17.656-9.525 0-17.29-7.543-17.644-16.981.766 8.519 7.925 15.196 16.644 15.196 9.229 0 16.71-7.482 16.71-16.711 0-9.23-7.481-16.711-16.71-16.711-.478 0-.95.02-1.418.059.79-.108 1.598-.164 2.418-.164zm14.863 16.816c0-8.761-7.102-15.864-15.863-15.864-.74 0-1.47.051-2.182.15.39-.031.783-.047 1.18-.047 8.24 0 14.92 6.68 14.92 14.92 0 8.239-6.68 14.918-14.92 14.918-7.755 0-14.128-5.917-14.85-13.483.312 8.486 7.29 15.269 15.852 15.269 8.76 0 15.863-7.102 15.863-15.863zM19.507 5.695c7.771 0 14.071 6.3 14.071 14.071 0 7.772-6.3 14.072-14.07 14.072-7.62 0-13.823-6.055-14.065-13.614.652 6.64 6.252 11.828 13.064 11.828 7.25 0 13.127-5.877 13.127-13.127 0-7.25-5.877-13.127-13.127-13.127-.333 0-.662.012-.989.036.65-.091 1.314-.139 1.99-.139zm11.28 13.23c0-6.782-5.498-12.28-12.28-12.28-.62 0-1.228.046-1.822.135.271-.02.545-.03.822-.03 6.26 0 11.334 5.075 11.334 11.335 0 6.26-5.075 11.334-11.334 11.334-5.866 0-10.691-4.456-11.275-10.167.173 6.63 5.602 11.952 12.275 11.952 6.782 0 12.28-5.497 12.28-12.28zM17.506 7.598c5.791 0 10.486 4.695 10.486 10.487 0 5.791-4.695 10.486-10.486 10.486-5.718 0-10.367-4.576-10.485-10.266.529 4.77 4.573 8.48 9.484 8.48a9.542 9.542 0 1 0-.6-19.066c.522-.08 1.056-.12 1.6-.12zm7.694 9.645a8.695 8.695 0 0 0-10.111-8.58 7.75 7.75 0 1 1-7.278 8.692 8.695 8.695 0 0 0 17.389-.112zM15.505 9.5a6.903 6.903 0 1 1-6.903 6.903v-.027a5.959 5.959 0 0 0 11.86-.814 5.957 5.957 0 0 0-6.18-5.954c.397-.07.806-.108 1.223-.108zm4.11 6.062a5.11 5.11 0 1 0-10.22 0 5.11 5.11 0 0 0 10.22 0z" clip-rule="evenodd"/></g><defs><clipPath id="a"><path fill="#fff" d="M.215 0h185.071v45.651H.215z"/></clipPath></defs></svg>