<svg xmlns="http://www.w3.org/2000/svg" width="178" height="37" fill="none"><path fill="#A5A5A5" d="M37.449 12.197a12.19 12.19 0 0 0-21.172-8.242H.879v32.498h32.51V21.265a12.178 12.178 0 0 0 4.06-9.068zm-6.255 0a5.948 5.948 0 1 1-11.896.025 5.948 5.948 0 0 1 11.896-.025zm-4.06 18.001h-20V10.21h6.095c-.117.656-.18 1.32-.185 1.987a12.216 12.216 0 0 0 12.203 12.202 11.926 11.926 0 0 0 1.887-.16v5.959zm22.333-1.412h12.946v-3.9h-8.345V10.198h-4.601v18.588zm20.616-2.6c-1.845 0-2.807-1.612-2.807-4.03 0-2.417.962-4.055 2.807-4.055 1.846 0 2.834 1.638 2.834 4.056 0 2.417-.988 4.03-2.834 4.03zm.026 3.016c4.29 0 7.098-3.042 7.098-7.045 0-4.004-2.808-7.045-7.097-7.045-4.264 0-7.124 3.041-7.124 7.045 0 4.003 2.86 7.045 7.123 7.045zm14.521 4.185c1.977 0 3.718-.442 4.888-1.482 1.066-.962 1.768-2.417 1.768-4.42v-12.01H87.23v1.43h-.052c-.78-1.118-1.976-1.82-3.744-1.82-3.302 0-5.59 2.756-5.59 6.656 0 4.081 2.782 6.317 5.772 6.317 1.612 0 2.626-.65 3.405-1.534h.104v1.326c0 1.612-.753 2.547-2.547 2.547-1.404 0-2.106-.597-2.34-1.3h-4.107c.416 2.782 2.833 4.29 6.499 4.29zm-.025-8.475c-1.586 0-2.626-1.3-2.626-3.301 0-2.028 1.04-3.328 2.626-3.328 1.768 0 2.703 1.508 2.703 3.302 0 1.871-.857 3.327-2.703 3.327zm15.019 1.274c-1.845 0-2.807-1.612-2.807-4.03 0-2.417.962-4.055 2.807-4.055 1.846 0 2.834 1.638 2.834 4.056 0 2.417-.988 4.029-2.834 4.029zm.026 3.015c4.289 0 7.097-3.041 7.097-7.044 0-4.004-2.808-7.046-7.097-7.046-4.263 0-7.123 3.042-7.123 7.046 0 4.003 2.86 7.044 7.123 7.044zm8.336-.415h4.238v-13.31h-4.238v13.31zm0-15.156h4.238v-3.432h-4.238v3.432zm6.075 19.55h4.237v-5.772h.052c.832 1.118 2.053 1.794 3.77 1.794 3.483 0 5.797-2.756 5.797-7.071 0-4.004-2.158-7.046-5.694-7.046-1.82 0-3.119.806-4.029 2.002h-.078v-1.611h-4.055v17.703zm6.967-7.254c-1.82 0-2.86-1.482-2.86-3.64 0-2.157.936-3.795 2.782-3.795 1.82 0 2.677 1.508 2.677 3.796 0 2.261-.988 3.639-2.599 3.639zm13.788 3.276c3.485 0 6.057-1.508 6.057-4.42 0-3.405-2.755-4.003-5.094-4.393-1.691-.312-3.198-.442-3.198-1.378 0-.832.805-1.222 1.845-1.222 1.17 0 1.976.364 2.132 1.56h3.899c-.207-2.626-2.235-4.264-6.005-4.264-3.145 0-5.744 1.456-5.744 4.264 0 3.12 2.469 3.744 4.783 4.133 1.767.312 3.38.442 3.38 1.638 0 .858-.807 1.326-2.081 1.326-1.404 0-2.287-.65-2.444-1.976h-4.002c.129 2.938 2.573 4.732 6.472 4.732zm11.813-.027c1.846 0 3.015-.727 3.978-2.027h.078v1.637h4.055v-13.31h-4.238v7.435c0 1.586-.883 2.678-2.339 2.678-1.353 0-2.002-.806-2.002-2.262v-7.85h-4.212v8.734c0 2.964 1.613 4.965 4.68 4.965zm9.955-.389h4.237v-7.461c0-1.586.78-2.704 2.106-2.704 1.273 0 1.872.832 1.872 2.262v7.903h4.238v-7.461c0-1.586.754-2.704 2.105-2.704 1.274 0 1.871.832 1.871 2.262v7.903h4.238v-8.657c0-2.99-1.507-5.044-4.523-5.044-1.716 0-3.146.728-4.186 2.34h-.052c-.676-1.43-2.001-2.34-3.743-2.34-1.924 0-3.198.91-4.03 2.288h-.077v-1.898h-4.056v13.31z"/></svg>