<svg xmlns="http://www.w3.org/2000/svg" width="28" height="28" fill="none"><path stroke="#fff" stroke-linecap="round" stroke-width="1.5" d="M2.333 11.667c.91-4.452 4.281-8.016 8.64-9.229.367-.102.55-.153.648-.044.099.11.026.29-.119.65L10.5 5.25m5.833-2.917c4.452.91 8.016 4.281 9.229 8.64.102.367.153.55.043.648-.109.099-.289.026-.65-.119L22.75 10.5m2.917 5.833c-.91 4.452-4.281 8.016-8.641 9.229-.366.102-.549.153-.648.043-.098-.109-.025-.289.12-.65L17.5 22.75m-5.833 2.917c-4.452-.91-8.016-4.281-9.229-8.641-.102-.366-.153-.549-.044-.648.11-.098.29-.025.65.12L5.25 17.5"/><path stroke="#fff" stroke-linecap="round" stroke-linejoin="round" stroke-width="1.5" d="M17.5 14a3.5 3.5 0 0 1-3.5 3.5m3.5-3.5a3.5 3.5 0 0 0-3.5-3.5m3.5 3.5h1.75M14 17.5a3.5 3.5 0 0 1-3.5-3.5m3.5 3.5v1.75M10.5 14a3.5 3.5 0 0 1 3.5-3.5M10.5 14H8.75M14 10.5V8.75m2.475 2.775 1.237-1.237m-6.187 6.187-1.237 1.237m6.187-1.237 1.237 1.237m-6.187-6.187-1.237-1.237"/></svg>