<svg xmlns="http://www.w3.org/2000/svg" width="28" height="28" fill="none"><path stroke="#fff" stroke-linecap="round" stroke-width="1.5" d="M14 16.333v9.334m7 0H7"/><circle cx="14" cy="14.583" r="1.75" stroke="#fff" stroke-linecap="round" stroke-width="1.5"/><ellipse cx="14" cy="5.833" stroke="#fff" stroke-linecap="round" stroke-width="1.5" rx="2.333" ry="3.5"/><path stroke="#fff" stroke-linecap="round" stroke-width="1.5" d="M20.14 20.942c-1.654-.948-2.478-2.606-1.842-3.702.637-1.096 2.493-1.215 4.146-.266 1.653.949 2.478 2.607 1.841 3.703-.636 1.096-2.492 1.215-4.145.265zm-12.28 0c1.654-.948 2.478-2.606 1.842-3.702-.637-1.096-2.493-1.215-4.146-.266-1.653.949-2.477 2.607-1.841 3.703.636 1.096 2.492 1.215 4.145.265z"/><path stroke="#fff" stroke-width="1.5" d="M14 9.333v3.5m1.166 2.334 3.5 2.333m-5.832-2.333-3.5 2.333"/><path stroke="#fff" stroke-linecap="round" stroke-width="1.5" d="M8.75 3.5C5.612 5.258 3.5 8.543 3.5 12.306c0 .577.05 1.143.145 1.694M19.25 3.5c3.139 1.758 5.25 5.043 5.25 8.806 0 .577-.05 1.143-.145 1.694"/></svg>