<svg xmlns="http://www.w3.org/2000/svg" width="28" height="28" fill="none"><path stroke="#fff" stroke-linecap="round" stroke-width="1.5" d="M2.333 11.667c.91-4.452 4.281-8.016 8.641-9.229.366-.102.549-.153.648-.044.098.11.026.29-.12.65L10.5 5.25m5.834-2.917c4.451.91 8.015 4.281 9.228 8.64.102.367.153.55.044.648-.11.099-.29.026-.65-.119L22.75 10.5m2.917 5.833c-.91 4.452-4.28 8.016-8.64 9.229-.367.102-.55.153-.648.043-.099-.109-.026-.289.119-.65L17.5 22.75m-5.833 2.917c-4.452-.91-8.016-4.281-9.229-8.641-.102-.366-.152-.549-.043-.648.109-.098.289-.025.65.12L5.25 17.5"/><path stroke="#fff" stroke-linecap="round" stroke-linejoin="round" stroke-width="1.5" d="M14 12.949c-1.531 1.05-3.385 3.127-4.083 6.301m1.02-2.796c-2.416-5.593 2.46-7.48 6.171-7.689.448-.025.672-.038.833.125.16.163.151.396.133.861-.154 3.869-1.697 9.191-7.136 6.703z"/></svg>